<svg width="152" height="50" viewBox="0 0 152 50" fill="none" xmlns="http://www.w3.org/2000/svg">
<path d="M0 25C0 11.1929 11.1929 0 25 0H126.562C140.37 0 151.562 11.1929 151.562 25C151.562 38.8071 140.37 50 126.562 50H25C11.1929 50 0 38.8071 0 25Z" fill="white"/>
<path d="M59.7938 15.1198C59.7938 15.9394 59.5428 16.5958 59.0484 17.0854C58.48 17.6657 57.7396 17.9578 56.8324 17.9578C55.9653 17.9578 55.2249 17.6608 54.6176 17.0756C54.009 16.4817 53.7053 15.7529 53.7053 14.8805C53.7053 14.0081 54.009 13.2793 54.6176 12.6903C55.2249 12.1002 55.9653 11.8032 56.8324 11.8032C57.264 11.8032 57.6756 11.8903 58.0684 12.0523C58.4599 12.2155 58.7786 12.4363 59.0095 12.7087L58.485 13.2265C58.0822 12.7615 57.5338 12.532 56.8324 12.532C56.1999 12.532 55.6516 12.748 55.186 13.1836C54.7255 13.6204 54.4946 14.186 54.4946 14.8805C54.4946 15.575 54.7255 16.1455 55.186 16.5823C55.6516 17.013 56.1999 17.2338 56.8324 17.2338C57.5037 17.2338 58.0684 17.013 58.5139 16.5774C58.8075 16.2891 58.9744 15.8915 59.0183 15.3836H56.8324V14.6744H59.7486C59.7838 14.8277 59.7938 14.9762 59.7938 15.1198Z" fill="#474B4E"/>
<path d="M64.4208 12.6609H61.6815V14.5259H64.151V15.2351H61.6815V17.1001H64.4208V17.8228H60.906V11.9382H64.4208V12.6609Z" fill="#474B4E"/>
<path d="M67.6862 17.8228H66.9107V12.6609H65.2305V11.9382H69.3677V12.6609H67.6862V17.8228Z" fill="#474B4E"/>
<path d="M72.3621 17.8228V11.9382H73.1364V17.8228H72.3621Z" fill="#474B4E"/>
<path d="M76.568 17.8228H75.7988V12.6609H74.1123V11.9382H78.2545V12.6609H76.568V17.8228Z" fill="#474B4E"/>
<path fill-rule="evenodd" clip-rule="evenodd" d="M83.8821 17.9578C84.7593 17.9578 85.4946 17.6608 86.0881 17.0657C86.6804 16.4719 86.9753 15.7431 86.9753 14.8805C86.9753 14.0228 86.6804 13.2989 86.0831 12.7001C85.4896 12.1002 84.7542 11.8032 83.8821 11.8032C83 11.8032 82.2646 12.1002 81.6711 12.6952C81.0788 13.2891 80.7839 14.0179 80.7839 14.8805C80.7839 15.7431 81.0788 16.4719 81.6711 17.0657C82.2646 17.6608 83 17.9578 83.8821 17.9578ZM83.8829 17.2338C83.2354 17.2338 82.692 17.013 82.2453 16.5725C81.7998 16.132 81.574 15.5664 81.574 14.8805C81.574 14.1946 81.7998 13.629 82.2453 13.1885C82.692 12.748 83.2354 12.5272 83.8829 12.5272C84.5254 12.5272 85.0737 12.748 85.5154 13.1885C85.9609 13.629 86.1868 14.1946 86.1868 14.8805C86.1868 15.5664 85.9609 16.132 85.5154 16.5725C85.0737 17.013 84.5254 17.2338 83.8829 17.2338Z" fill="#474B4E"/>
<path d="M88.0625 17.8228V11.9382H89.0036L91.9299 16.5149H91.9638L91.9299 15.3836V11.9382H92.7042V17.8228H91.896L88.8317 13.0204H88.7978L88.8317 14.1566V17.8228H88.0625H88.0625Z" fill="#474B4E"/>
<path fill-rule="evenodd" clip-rule="evenodd" d="M92.068 27.3467H92.0053C91.5836 26.8583 90.7793 26.4166 89.7604 26.4166C87.6221 26.4166 85.6671 28.2522 85.6671 30.6055C85.6671 32.9454 87.6221 34.7662 89.7604 34.7662C90.7793 34.7662 91.5836 34.3208 92.0053 33.8178H92.068V34.4165C92.068 36.0128 91.1959 36.8705 89.7892 36.8705C88.6423 36.8705 87.9308 36.0607 87.6372 35.3797L86.0046 36.046C86.4752 37.1527 87.7212 38.5146 89.7892 38.5146C91.9902 38.5146 93.8474 37.2484 93.8474 34.1675V26.6706H92.068V27.3467ZM60.123 27.6964V29.4706H64.456C64.3292 30.462 63.9904 31.1908 63.4709 31.6988C62.8385 32.3123 61.8534 32.9932 60.123 32.9932C57.4565 32.9932 55.3684 30.889 55.3684 28.2816C55.3684 25.6743 57.4565 23.57 60.123 23.57C61.5648 23.57 62.6139 24.1209 63.3881 24.835L64.6668 23.5848C63.5839 22.5737 62.1433 21.797 60.123 21.797C56.4664 21.797 53.3933 24.7062 53.3933 28.2816C53.3933 31.8571 56.4664 34.7662 60.123 34.7662C62.0994 34.7662 63.5839 34.1331 64.7509 32.9454C65.9467 31.7761 66.3194 30.1319 66.3194 28.8043C66.3194 28.3921 66.2843 28.0129 66.2215 27.6964H60.123ZM71.245 26.4166C68.8822 26.4166 66.961 28.1712 66.961 30.592C66.961 32.9932 68.8822 34.7662 71.245 34.7662C73.6067 34.7662 75.5291 32.9932 75.5291 30.592C75.5291 28.1712 73.6067 26.4166 71.245 26.4166ZM76.31 30.592C76.31 28.1712 78.2362 26.4166 80.594 26.4166C82.9569 26.4166 84.883 28.1712 84.883 30.592C84.883 32.9932 82.9569 34.7662 80.594 34.7662C78.2362 34.7662 76.31 32.9932 76.31 30.592ZM78.1866 30.592C78.1866 32.0779 79.2996 33.122 80.5934 33.122C81.8871 33.122 83.0052 32.0779 83.0052 30.592C83.0052 29.0865 81.8871 28.0607 80.5934 28.0607C79.2996 28.0607 78.1866 29.0865 78.1866 30.592ZM68.8344 30.592C68.8344 32.0779 69.9512 33.122 71.2462 33.122C72.5399 33.122 73.653 32.0779 73.653 30.592C73.653 29.0865 72.5399 28.0607 71.2462 28.0607C69.9512 28.0607 68.8344 29.0865 68.8344 30.592ZM101.95 26.4166C104.167 26.4166 105.254 28.1381 105.607 29.0718L105.804 29.5466L100.093 31.8571C100.53 32.6963 101.211 33.1221 102.161 33.1221C103.117 33.1221 103.779 32.662 104.264 31.9675L105.72 32.9159C105.254 33.5969 104.123 34.7662 102.161 34.7662C99.7357 34.7662 97.9262 32.9307 97.9262 30.592C97.9262 28.1086 99.7545 26.4166 101.95 26.4166ZM99.783 30.462C99.734 28.8522 101.062 28.0276 102.013 28.0276C102.758 28.0276 103.391 28.3921 103.601 28.9135L99.783 30.462ZM97.0186 34.5122H95.1414V22.2424L97.0186 22.2424V34.5122ZM87.5437 30.6055C87.5437 32.0632 88.6266 33.122 89.9204 33.122C91.1953 33.122 92.2004 32.0632 92.2004 30.6055C92.2004 29.1344 91.1953 28.0607 89.9204 28.0607C88.6266 28.0607 87.5437 29.1344 87.5437 30.6055ZM114.395 22.2424H109.905V34.5122H111.778V29.8632H114.395C116.474 29.8632 118.514 28.392 118.514 26.0522C118.514 23.7136 116.469 22.2424 114.395 22.2424ZM111.777 28.1565H114.444C115.842 28.1565 116.64 27.0019 116.64 26.0522C116.64 25.0841 115.842 23.9492 114.444 23.9492H111.777V28.1565ZM126.018 26.3933C124.665 26.3933 123.259 26.9774 122.68 28.2718L124.341 28.9528C124.699 28.2718 125.357 28.051 126.052 28.051C127.023 28.051 128.008 28.6215 128.023 29.6289V29.7577C127.684 29.5663 126.959 29.2828 126.067 29.2828C124.277 29.2828 122.454 30.246 122.454 32.0436C122.454 33.6877 123.92 34.7466 125.567 34.7466C126.827 34.7466 127.522 34.1908 127.959 33.5442H128.023V34.4926H129.831V29.7859C129.831 27.6105 128.17 26.3933 126.018 26.3933ZM124.326 32.0779C124.326 32.8202 125.179 33.1172 125.792 33.1172C126.876 33.1172 127.876 32.3123 128.023 31.1761C127.522 30.9417 127.136 30.7638 126.311 30.7638C125.39 30.7638 124.326 31.1282 124.326 32.0779ZM136.419 26.662L134.267 31.981H134.203L131.978 26.662H129.959L133.302 34.095L131.395 38.2312H133.351L138.502 26.662H136.419ZM121.42 34.5122H119.542V22.2424H121.42V34.5122Z" fill="#474B4E"/>
<path d="M22.6687 12.4646C22.3738 12.7664 22.2031 13.2363 22.2031 13.8449L22.2031 35.5527C22.2031 36.1612 22.3738 36.6312 22.6687 36.933L22.7415 36.9993L35.1819 24.8399V24.5528L22.7415 12.3934L22.6687 12.4646Z" fill="#474B4E"/>
<path d="M39.3239 28.895L35.1816 24.8398V24.5527L39.3289 20.4976L39.4217 20.5503L44.3332 23.2828C45.7348 24.0583 45.7348 25.3343 44.3332 26.1147L39.4217 28.8423L39.3239 28.895V28.895Z" fill="#474B4E"/>
<path d="M39.4221 28.8423L35.182 24.6963L22.6687 36.933C23.1342 37.4115 23.8934 37.4692 24.7568 36.9907L39.4221 28.8423Z" fill="#474B4E"/>
<path d="M39.4221 20.5503L24.7568 12.4019C23.8934 11.9283 23.1342 11.986 22.6687 12.4645L35.182 24.6963L39.4221 20.5503Z" fill="#474B4E"/>
</svg>
