<svg width="151" height="50" viewBox="0 0 151 50" fill="none" xmlns="http://www.w3.org/2000/svg">
<path d="M0 25C0 11.1929 11.1929 0 25 0H126C139.807 0 151 11.1929 151 25C151 38.8071 139.807 50 126 50H25C11.1929 50 0 38.8071 0 25Z" fill="white"/>
<path d="M41.4703 23.6968C41.4413 20.4738 44.105 18.9058 44.2268 18.8328C42.7183 16.6298 40.38 16.3288 39.5584 16.3048C37.5945 16.0978 35.6896 17.4818 34.6892 17.4818C33.6689 17.4818 32.1284 16.3248 30.468 16.3588C28.3315 16.3918 26.3327 17.6308 25.2365 19.5548C22.9741 23.4778 24.6614 29.2428 26.8289 32.4138C27.9132 33.9678 29.1801 35.7008 30.8384 35.6398C32.4608 35.5738 33.0668 34.6048 35.0247 34.6048C36.9646 34.6048 37.5336 35.6398 39.2249 35.6008C40.9661 35.5738 42.0623 34.0408 43.1086 32.4738C44.3616 30.6948 44.8648 28.9408 44.8848 28.8508C44.8448 28.8368 41.5042 27.5588 41.4703 23.6968Z" fill="#474B4E"/>
<path d="M38.2754 14.2189C39.148 13.1259 39.745 11.6389 39.5793 10.1299C38.3163 10.1859 36.7369 11.0049 35.8273 12.0739C35.0226 13.0159 34.3038 14.5599 34.4895 16.0119C35.9082 16.1179 37.3649 15.2949 38.2754 14.2189Z" fill="#474B4E"/>
<path fill-rule="evenodd" clip-rule="evenodd" d="M62.7032 35.4169H64.9706L60.6735 22.1089H58.0318L53.7537 35.4169H55.9611L57.1442 31.5079H61.4612L62.7032 35.4169ZM59.964 26.3929L61.0872 29.8679H57.519L58.6232 26.3929C58.9117 25.2879 59.1224 24.4519 59.2542 23.8859H59.2941C59.6216 25.2019 59.8452 26.0379 59.964 26.3929Z" fill="#474B4E"/>
<path fill-rule="evenodd" clip-rule="evenodd" d="M74.6219 34.3698C75.5074 33.4228 75.9497 32.1328 75.9497 30.5008C75.9497 29.0398 75.5713 27.8618 74.8175 26.9648C74.0628 26.0698 73.1193 25.6228 71.9891 25.6228C70.5434 25.6228 69.4662 26.1958 68.7563 27.3418H68.7164L68.5976 25.8208H66.7256C66.7775 26.8988 66.8045 27.9498 66.8045 28.9748V39.3078H68.933V34.2728C69.4871 35.1808 70.3997 35.6338 71.6686 35.6338C72.8437 35.6338 73.8291 35.2128 74.6219 34.3698ZM73.1492 28.2678C73.5705 28.8748 73.7802 29.6448 73.7802 30.5788C73.7802 31.5928 73.5565 32.4088 73.1093 33.0278C72.663 33.6448 72.039 33.9558 71.2373 33.9558C70.5544 33.9558 69.9993 33.7148 69.572 33.2348C69.1446 32.7528 68.931 32.1638 68.931 31.4668V29.8658C68.931 29.6958 68.9639 29.4808 69.0298 29.2168C69.1606 28.6508 69.4402 28.1938 69.8675 27.8438C70.2938 27.4968 70.771 27.3208 71.2962 27.3208C72.0709 27.3208 72.6889 27.6368 73.1492 28.2678Z" fill="#474B4E"/>
<path fill-rule="evenodd" clip-rule="evenodd" d="M85.6416 34.3698C86.5272 33.4228 86.9695 32.1328 86.9695 30.5008C86.9695 29.0398 86.5901 27.8618 85.8373 26.9648C85.0806 26.0698 84.1371 25.6228 83.0079 25.6228C81.5612 25.6228 80.484 26.1958 79.7751 27.3418H79.7352L79.6164 25.8208H77.7444C77.7963 26.8988 77.8233 27.9498 77.8233 28.9748V39.3078H79.9518V34.2728C80.5059 35.1808 81.4185 35.6338 82.6874 35.6338C83.8635 35.6338 84.8479 35.2128 85.6416 34.3698ZM84.1673 28.2678C84.5887 28.8748 84.7993 29.6448 84.7993 30.5788C84.7993 31.5928 84.5757 32.4088 84.1284 33.0278C83.6831 33.6448 83.0591 33.9558 82.2564 33.9558C81.5715 33.9558 81.0164 33.7138 80.5891 33.2348C80.1638 32.7528 79.9491 32.1638 79.9491 31.4668V29.8658C79.9491 29.6958 79.9841 29.4808 80.049 29.2168C80.1798 28.6508 80.4583 28.1938 80.8856 27.8438C81.3139 27.4968 81.7912 27.3208 82.3163 27.3208C83.0911 27.3208 83.7071 27.6368 84.1673 28.2678Z" fill="#474B4E"/>
<path d="M99.2893 31.6839C99.2893 32.8169 98.8939 33.7379 98.1082 34.4489C97.2436 35.2249 96.0365 35.6139 94.489 35.6139C93.0593 35.6139 91.9132 35.3379 91.0486 34.7849L91.5408 33.0079C92.4743 33.5619 93.4996 33.8379 94.6158 33.8379C95.4185 33.8379 96.0425 33.6559 96.4878 33.2949C96.9341 32.9329 97.1597 32.4489 97.1597 31.8449C97.1597 31.3039 96.973 30.8509 96.6066 30.4819C96.2382 30.1139 95.6292 29.7709 94.7736 29.4559C92.4473 28.5869 91.2832 27.3159 91.2832 25.6439C91.2832 24.5519 91.6945 23.6579 92.5152 22.9589C93.3359 22.2609 94.4241 21.9119 95.778 21.9119C96.987 21.9119 97.9944 22.1229 98.7941 22.5439L98.26 24.2819C97.5072 23.8739 96.6575 23.6699 95.7071 23.6699C94.9563 23.6699 94.3672 23.8549 93.9459 24.2229C93.5915 24.5519 93.4118 24.9529 93.4118 25.4289C93.4118 25.9539 93.6164 26.3899 94.0238 26.7319C94.3772 27.0469 95.0222 27.3899 95.9547 27.7579C97.0988 28.2199 97.9395 28.7579 98.4776 29.3759C99.0197 29.9939 99.2893 30.7649 99.2893 31.6839Z" fill="#474B4E"/>
<path d="M106.344 27.421H103.998V32.08C103.998 33.265 104.411 33.856 105.24 33.856C105.621 33.856 105.936 33.824 106.186 33.757L106.245 35.376C105.825 35.533 105.273 35.612 104.589 35.612C103.749 35.612 103.092 35.355 102.617 34.841C102.145 34.327 101.908 33.466 101.908 32.254V27.417H100.51V25.817H101.908V24.06L103.998 23.428V25.817H106.344V27.421Z" fill="#474B4E"/>
<path fill-rule="evenodd" clip-rule="evenodd" d="M115.647 34.1727C116.487 33.2257 116.909 32.0147 116.909 30.5397C116.909 29.1037 116.502 27.9337 115.685 27.0277C114.831 26.0937 113.702 25.6257 112.296 25.6257C110.837 25.6257 109.677 26.0997 108.816 27.0477C107.956 27.9947 107.525 29.2127 107.525 30.6997C107.525 32.1207 107.942 33.2987 108.777 34.2337C109.611 35.1667 110.73 35.6337 112.138 35.6337C113.597 35.6337 114.767 35.1477 115.647 34.1727ZM114.132 28.3248C114.512 28.9558 114.702 29.7098 114.702 30.5888C114.702 31.4698 114.505 32.2288 114.114 32.8748C113.653 33.6478 113.015 34.0368 112.201 34.0368C111.37 34.0368 110.728 33.6558 110.267 32.8938C109.886 32.2648 109.696 31.5088 109.696 30.6288C109.696 29.7228 109.886 28.9558 110.267 28.3248C110.713 27.5628 111.367 27.1818 112.219 27.1818C113.047 27.1818 113.686 27.5628 114.132 28.3248Z" fill="#474B4E"/>
<path d="M123.833 27.6958C123.622 27.6568 123.396 27.6368 123.162 27.6368C122.413 27.6368 121.834 27.9188 121.426 28.4868C121.073 28.9868 120.895 29.6188 120.895 30.3818V35.4168H118.767V28.8428C118.767 27.7378 118.746 26.7298 118.705 25.8218H120.559L120.637 27.6578H120.696C120.921 27.0268 121.275 26.5178 121.76 26.1368C122.234 25.7938 122.746 25.6228 123.298 25.6228C123.495 25.6228 123.673 25.6368 123.831 25.6618L123.833 27.6958Z" fill="#474B4E"/>
<path fill-rule="evenodd" clip-rule="evenodd" d="M133.274 31.1319C133.327 30.8689 133.352 30.5469 133.352 30.1649C133.352 28.9679 133.069 27.9599 132.507 27.1469C131.797 26.1209 130.752 25.6079 129.371 25.6079C127.966 25.6079 126.848 26.1209 126.022 27.1469C125.232 28.1079 124.838 29.3129 124.838 30.7589C124.838 32.2319 125.262 33.4079 126.109 34.2829C126.957 35.1569 128.123 35.5949 129.609 35.5949C130.844 35.5949 131.914 35.3979 132.821 35.0019L132.487 33.5229C131.712 33.8259 130.849 33.9759 129.903 33.9759C129.049 33.9759 128.353 33.7519 127.815 33.3059C127.222 32.8059 126.912 32.0799 126.888 31.1319H133.274ZM130.91 27.9729C131.199 28.4339 131.339 28.9789 131.324 29.6119L126.891 29.6099C126.956 28.9669 127.166 28.4129 127.521 27.9519C127.952 27.3719 128.519 27.0829 129.215 27.0829C129.975 27.0829 130.542 27.3789 130.91 27.9729Z" fill="#474B4E"/>
<path fill-rule="evenodd" clip-rule="evenodd" d="M58.9436 17.3459H60.0588L57.9452 10.8049H56.6473L54.5447 17.3459H55.6299L56.212 15.4249H58.3336L58.9436 17.3459ZM57.598 12.911L58.1501 14.619H56.3959L56.938 12.911C57.0704 12.418 57.1624 12.0362 57.229 11.7598C57.2358 11.7318 57.2423 11.7048 57.2485 11.679H57.2685C57.4332 12.329 57.5401 12.736 57.598 12.911Z" fill="#474B4E"/>
<path d="M65.317 12.6299L63.5338 17.3459H62.5165L60.7913 12.6299H61.9154L62.7201 15.1239C62.8559 15.5409 62.9717 15.9389 63.0586 16.3169H63.0876C63.1654 15.9779 63.2812 15.5799 63.426 15.1239L64.2207 12.6299H65.317Z" fill="#474B4E"/>
<path fill-rule="evenodd" clip-rule="evenodd" d="M69.0352 16.803L69.113 17.346L70.0545 17.347C70.0066 17.066 69.9866 16.697 69.9866 16.221V14.484C69.9866 13.183 69.3656 12.533 68.1356 12.533C67.4957 12.533 66.9535 12.669 66.5172 12.941L66.7299 13.63C67.0873 13.397 67.4947 13.28 67.9599 13.28C68.6089 13.28 68.9383 13.591 68.9383 14.212V14.299C67.1941 14.299 66.1868 14.901 66.1868 16.065C66.1868 16.861 66.7878 17.453 67.6304 17.453C68.2215 17.453 68.6867 17.24 69.0062 16.803H69.0352ZM67.2222 15.9479C67.2222 15.2789 67.8033 14.9969 68.9664 14.9969V15.7249C68.9664 16.2779 68.4722 16.6849 67.9391 16.6849C67.5228 16.6849 67.2222 16.4429 67.2222 15.9479Z" fill="#474B4E"/>
<path fill-rule="evenodd" clip-rule="evenodd" d="M71.6963 11.2218C71.6963 11.5808 71.9679 11.8528 72.3163 11.8528C72.7047 11.8528 72.9752 11.6008 72.9752 11.2218C72.9852 10.8628 72.6947 10.6008 72.3363 10.6008C71.9768 10.6008 71.6963 10.8628 71.6963 11.2218ZM71.8135 17.3458H72.8598V12.6298H71.8135V17.3458Z" fill="#474B4E"/>
<path d="M75.7651 17.3458H74.7188V10.4658H75.7651V17.3458Z" fill="#474B4E"/>
<path fill-rule="evenodd" clip-rule="evenodd" d="M80.1338 16.803L80.2117 17.346H81.1512C81.1052 17.065 81.0843 16.696 81.0843 16.22V14.483C81.0843 13.182 80.4633 12.532 79.2333 12.532C78.5933 12.532 78.0512 12.668 77.6149 12.94L77.8285 13.63C78.1859 13.397 78.5933 13.28 79.0585 13.28C79.7075 13.28 80.037 13.591 80.037 14.212V14.299C78.2928 14.299 77.2854 14.901 77.2854 16.065C77.2854 16.861 77.8864 17.453 78.7291 17.453C79.3201 17.453 79.7854 17.24 80.1049 16.803H80.1338ZM78.3199 15.948C78.3199 15.279 78.901 14.997 80.0641 14.997V15.725C80.0641 16.278 79.5699 16.685 79.0367 16.685C78.6204 16.685 78.3199 16.443 78.3199 15.948Z" fill="#474B4E"/>
<path fill-rule="evenodd" clip-rule="evenodd" d="M83.8423 16.6178C84.1618 17.1708 84.655 17.4528 85.3229 17.4528C86.524 17.4528 87.4066 16.3848 87.4066 14.9208C87.4066 13.5048 86.6118 12.5338 85.4777 12.5338C84.7888 12.5338 84.2866 12.7958 83.9761 13.3198H83.9561V10.4658H82.9088V16.0748C82.9088 16.5398 82.8988 16.9678 82.8699 17.3458H83.7614L83.8213 16.6178H83.8423ZM83.9568 14.6088C83.9568 13.8808 84.5079 13.3568 85.1099 13.3568C85.8557 13.3568 86.3409 14.0078 86.3419 14.9588C86.3419 15.9778 85.8757 16.6178 85.092 16.6178C84.452 16.6178 83.9568 16.0838 83.9568 15.4338V14.6088Z" fill="#474B4E"/>
<path d="M90.0006 17.3458H88.9553V10.4658H90.0006V17.3458Z" fill="#474B4E"/>
<path fill-rule="evenodd" clip-rule="evenodd" d="M92.556 15.2399H95.6969C95.7269 15.1139 95.7359 14.9489 95.7319 14.7649C95.7319 13.4159 94.9751 12.5229 93.774 12.5229C92.4392 12.5229 91.5466 13.6099 91.5466 15.0559C91.5466 16.5009 92.4182 17.4329 93.8918 17.4329C94.5019 17.4329 95.025 17.3359 95.4703 17.1419L95.3076 16.4139C94.9302 16.5589 94.5039 16.6369 94.0386 16.6369C93.166 16.6369 92.577 16.1329 92.556 15.2399ZM93.7006 13.251C94.3695 13.251 94.7379 13.765 94.7379 14.493H92.5564C92.6263 13.775 93.0995 13.251 93.7006 13.251Z" fill="#474B4E"/>
<path fill-rule="evenodd" clip-rule="evenodd" d="M99.7708 15.027C99.7708 16.424 100.662 17.453 102.038 17.453C103.444 17.453 104.384 16.424 104.384 14.95C104.384 13.513 103.472 12.533 102.117 12.533C100.681 12.533 99.7708 13.571 99.7708 15.027ZM100.839 14.9969C100.839 14.0069 101.323 13.2989 102.079 13.2989C102.815 13.2989 103.299 14.0169 103.298 14.9769C103.298 15.9189 102.805 16.6759 102.069 16.6759C101.333 16.6759 100.839 15.9679 100.839 14.9969Z" fill="#474B4E"/>
<path d="M110.009 17.346H108.964V14.638C108.964 13.804 108.644 13.386 108.014 13.386C107.394 13.386 106.967 13.92 106.967 14.541V17.346H105.922V13.978C105.922 13.561 105.911 13.114 105.883 12.629H106.803L106.852 13.357H106.881C107.161 12.853 107.734 12.532 108.373 12.532C109.36 12.532 110.009 13.289 110.009 14.521V17.346Z" fill="#474B4E"/>
<path d="M116.854 13.4158H115.703V15.7058C115.703 16.2888 115.905 16.5798 116.312 16.5798C116.496 16.5798 116.652 16.5598 116.777 16.5308L116.806 17.3268C116.602 17.4048 116.33 17.4438 115.993 17.4438C115.169 17.4438 114.676 16.9878 114.676 15.7938V13.4158H113.99V12.6298H114.676V11.7658L115.703 11.4548V12.6288H116.854V13.4158Z" fill="#474B4E"/>
<path d="M122.395 17.3458H121.348V14.6578C121.348 13.8138 121.029 13.3868 120.399 13.3868C119.856 13.3868 119.353 13.7558 119.353 14.5028V17.3458H118.306V10.4658H119.353V13.2988H119.373C119.703 12.7848 120.178 12.5318 120.788 12.5318C121.785 12.5318 122.395 13.3078 122.395 14.5408V17.3458Z" fill="#474B4E"/>
<path fill-rule="evenodd" clip-rule="evenodd" d="M124.603 15.2399H127.743C127.772 15.1139 127.782 14.9489 127.778 14.7649C127.778 13.4159 127.021 12.5229 125.82 12.5229C124.485 12.5229 123.593 13.6099 123.593 15.0559C123.593 16.5009 124.464 17.4329 125.938 17.4329C126.548 17.4329 127.072 17.3359 127.517 17.1419L127.353 16.4139C126.976 16.5589 126.551 16.6369 126.085 16.6369C125.212 16.6369 124.623 16.1329 124.603 15.2399ZM125.747 13.251C126.416 13.251 126.783 13.765 126.783 14.493H124.603C124.672 13.775 125.145 13.251 125.747 13.251Z" fill="#474B4E"/>
</svg>
