<svg width="152" height="50" viewBox="0 0 152 50" fill="none" xmlns="http://www.w3.org/2000/svg">
<path d="M0.5 25C0.5 11.469 11.469 0.5 25 0.5H126.562C140.093 0.5 151.062 11.469 151.062 25C151.062 38.531 140.093 49.5 126.562 49.5H25C11.469 49.5 0.5 38.531 0.5 25Z" fill="white" stroke="#848487"/>
<path d="M59.794 15.1198C59.794 15.9394 59.5431 16.5958 59.0487 17.0854C58.4802 17.6657 57.7399 17.9578 56.8326 17.9578C55.9655 17.9578 55.2252 17.6608 54.6178 17.0756C54.0092 16.4817 53.7056 15.7529 53.7056 14.8805C53.7056 14.0081 54.0092 13.2793 54.6178 12.6903C55.2252 12.1002 55.9655 11.8032 56.8326 11.8032C57.2643 11.8032 57.6759 11.8903 58.0686 12.0523C58.4602 12.2155 58.7789 12.4364 59.0098 12.7087L58.4853 13.2265C58.0824 12.7615 57.5341 12.5321 56.8326 12.5321C56.2002 12.5321 55.6518 12.748 55.1863 13.1836C54.7258 13.6204 54.4949 14.186 54.4949 14.8805C54.4949 15.575 54.7258 16.1455 55.1863 16.5823C55.6518 17.013 56.2002 17.2338 56.8326 17.2338C57.504 17.2338 58.0686 17.013 58.5141 16.5774C58.8077 16.2891 58.9746 15.8915 59.0186 15.3836H56.8326V14.6744H59.7489C59.784 14.8277 59.794 14.9762 59.794 15.1198Z" fill="#474B4E"/>
<path d="M64.4206 12.6609H61.6813V14.5259H64.1508V15.2351H61.6813V17.1001H64.4206V17.8228H60.9058V11.9382H64.4206V12.6609Z" fill="#474B4E"/>
<path d="M67.6862 17.8228H66.9107V12.6609H65.2305V11.9382H69.3677V12.6609H67.6862V17.8228Z" fill="#474B4E"/>
<path d="M72.3619 17.8228V11.9382H73.1361V17.8228H72.3619Z" fill="#474B4E"/>
<path d="M76.568 17.8228H75.7988V12.6609H74.1123V11.9382H78.2545V12.6609H76.568V17.8228Z" fill="#474B4E"/>
<path fill-rule="evenodd" clip-rule="evenodd" d="M83.8819 17.9578C84.759 17.9578 85.4944 17.6608 86.0879 17.0658C86.6802 16.4719 86.9751 15.7431 86.9751 14.8805C86.9751 14.0228 86.6802 13.2989 86.0829 12.7002C85.4893 12.1002 84.754 11.8032 83.8819 11.8032C82.9997 11.8032 82.2644 12.1002 81.6709 12.6952C81.0786 13.2891 80.7837 14.0179 80.7837 14.8805C80.7837 15.7431 81.0786 16.4719 81.6709 17.0658C82.2644 17.6608 82.9997 17.9578 83.8819 17.9578ZM83.8826 17.2339C83.2351 17.2339 82.6918 17.013 82.2451 16.5725C81.7996 16.132 81.5737 15.5664 81.5737 14.8805C81.5737 14.1946 81.7996 13.629 82.2451 13.1885C82.6918 12.748 83.2351 12.5272 83.8826 12.5272C84.5251 12.5272 85.0735 12.748 85.5152 13.1885C85.9607 13.629 86.1865 14.1946 86.1865 14.8805C86.1865 15.5664 85.9607 16.132 85.5152 16.5725C85.0735 17.013 84.5251 17.2339 83.8826 17.2339Z" fill="#474B4E"/>
<path d="M88.0625 17.8228V11.9382H89.0036L91.9299 16.5148H91.9638L91.9299 15.3835V11.9382H92.7042V17.8228H91.896L88.8317 13.0204H88.7978L88.8317 14.1566V17.8228H88.0625H88.0625Z" fill="#474B4E"/>
<path fill-rule="evenodd" clip-rule="evenodd" d="M92.0678 27.3466H92.005C91.5834 26.8583 90.779 26.4166 89.7601 26.4166C87.6219 26.4166 85.6668 28.2521 85.6668 30.6055C85.6668 32.9454 87.6219 34.7662 89.7601 34.7662C90.779 34.7662 91.5834 34.3208 92.005 33.8177H92.0678V34.4165C92.0678 36.0128 91.1957 36.8705 89.789 36.8705C88.6421 36.8705 87.9306 36.0607 87.6369 35.3797L86.0044 36.0459C86.4749 37.1527 87.721 38.5146 89.789 38.5146C91.99 38.5146 93.8471 37.2484 93.8471 34.1674V26.6706H92.0678V27.3466ZM60.1228 27.6963V29.4705H64.4557C64.329 30.4619 63.9902 31.1908 63.4707 31.6987C62.8382 32.3122 61.8532 32.9932 60.1228 32.9932C57.4562 32.9932 55.3682 30.8889 55.3682 28.2816C55.3682 25.6743 57.4562 23.57 60.1228 23.57C61.5646 23.57 62.6136 24.1209 63.3879 24.835L64.6665 23.5847C63.5836 22.5737 62.1431 21.797 60.1228 21.797C56.4662 21.797 53.3931 24.7062 53.3931 28.2816C53.3931 31.857 56.4662 34.7662 60.1228 34.7662C62.0991 34.7662 63.5836 34.1331 64.7506 32.9454C65.9465 31.776 66.3192 30.1319 66.3192 28.8043C66.3192 28.392 66.284 28.0129 66.2213 27.6963H60.1228ZM71.2448 26.4166C68.8819 26.4166 66.9608 28.1712 66.9608 30.592C66.9608 32.9932 68.8819 34.7662 71.2448 34.7662C73.6064 34.7662 75.5288 32.9932 75.5288 30.592C75.5288 28.1712 73.6064 26.4166 71.2448 26.4166ZM76.3097 30.592C76.3097 28.1712 78.2359 26.4166 80.5938 26.4166C82.9566 26.4166 84.8828 28.1712 84.8828 30.592C84.8828 32.9932 82.9566 34.7662 80.5938 34.7662C78.2359 34.7662 76.3097 32.9932 76.3097 30.592ZM78.1864 30.592C78.1864 32.0778 79.2994 33.122 80.5931 33.122C81.8869 33.122 83.0049 32.0778 83.0049 30.592C83.0049 29.0865 81.8869 28.0607 80.5931 28.0607C79.2994 28.0607 78.1864 29.0865 78.1864 30.592ZM68.8341 30.592C68.8341 32.0778 69.951 33.122 71.2459 33.122C72.5397 33.122 73.6527 32.0778 73.6527 30.592C73.6527 29.0865 72.5397 28.0607 71.2459 28.0607C69.951 28.0607 68.8341 29.0865 68.8341 30.592ZM101.95 26.4166C104.166 26.4166 105.254 28.138 105.607 29.0718L105.804 29.5466L100.093 31.857C100.53 32.6963 101.211 33.122 102.161 33.122C103.117 33.122 103.779 32.6619 104.264 31.9674L105.72 32.9159C105.254 33.5969 104.122 34.7662 102.161 34.7662C99.7354 34.7662 97.9259 32.9306 97.9259 30.592C97.9259 28.1086 99.7542 26.4166 101.95 26.4166ZM99.7827 30.4619C99.7338 28.8521 101.061 28.0276 102.013 28.0276C102.758 28.0276 103.39 28.392 103.601 28.9135L99.7827 30.4619ZM97.0184 34.5122H95.1411V22.2424L97.0184 22.2424V34.5122ZM87.5435 30.6055C87.5435 32.0631 88.6264 33.122 89.9201 33.122C91.195 33.122 92.2002 32.0631 92.2002 30.6055C92.2002 29.1343 91.195 28.0607 89.9201 28.0607C88.6264 28.0607 87.5435 29.1343 87.5435 30.6055ZM114.395 22.2424H109.905V34.5122H111.777V29.8632H114.395C116.474 29.8632 118.513 28.392 118.513 26.0522C118.513 23.7135 116.469 22.2424 114.395 22.2424ZM111.777 28.1564H114.443C115.841 28.1564 116.639 27.0019 116.639 26.0522C116.639 25.0841 115.841 23.9491 114.443 23.9491H111.777V28.1564ZM126.018 26.3933C124.665 26.3933 123.258 26.9773 122.68 28.2718L124.341 28.9528C124.699 28.2718 125.356 28.0509 126.052 28.0509C127.023 28.0509 128.008 28.6215 128.023 29.6288V29.7577C127.684 29.5662 126.959 29.2828 126.067 29.2828C124.277 29.2828 122.454 30.246 122.454 32.0435C122.454 33.6877 123.92 34.7466 125.567 34.7466C126.827 34.7466 127.522 34.1907 127.959 33.5441H128.023V34.4926H129.831V29.7859C129.831 27.6104 128.17 26.3933 126.018 26.3933ZM124.326 32.0779C124.326 32.8202 125.179 33.1171 125.791 33.1171C126.876 33.1171 127.876 32.3122 128.022 31.176C127.522 30.9417 127.135 30.7638 126.311 30.7638C125.39 30.7638 124.326 31.1282 124.326 32.0779ZM136.419 26.662L134.267 31.9809H134.203L131.978 26.662H129.959L133.302 34.095L131.394 38.2312H133.351L138.502 26.662H136.419ZM121.419 34.5122H119.542V22.2424H121.419V34.5122Z" fill="#474B4E"/>
<path d="M22.6687 12.4646C22.3738 12.7664 22.2031 13.2363 22.2031 13.8449L22.2031 35.5526C22.2031 36.1612 22.3738 36.6312 22.6687 36.933L22.7415 36.9993L35.1819 24.8399V24.5528L22.7415 12.3934L22.6687 12.4646Z" fill="#474B4E"/>
<path d="M39.3239 28.8951L35.1816 24.8399V24.5528L39.3289 20.4977L39.4217 20.5504L44.3332 23.2829C45.7348 24.0584 45.7348 25.3344 44.3332 26.1148L39.4217 28.8424L39.3239 28.8951V28.8951Z" fill="#474B4E"/>
<path d="M39.4218 28.8423L35.1817 24.6963L22.6685 36.933C23.134 37.4115 23.8932 37.4692 24.7565 36.9907L39.4218 28.8423Z" fill="#474B4E"/>
<path d="M39.4218 20.5504L24.7565 12.402C23.8932 11.9284 23.134 11.9861 22.6685 12.4646L35.1817 24.6964L39.4218 20.5504Z" fill="#474B4E"/>
</svg>
