<svg width="151" height="50" viewBox="0 0 151 50" fill="none" xmlns="http://www.w3.org/2000/svg">
<path d="M0.5 25C0.5 11.469 11.469 0.5 25 0.5H126C139.531 0.5 150.5 11.469 150.5 25C150.5 38.531 139.531 49.5 126 49.5H25C11.469 49.5 0.5 38.531 0.5 25Z" fill="white" stroke="#474B4E"/>
<path d="M41.4703 23.6969C41.4413 20.4739 44.105 18.9059 44.2268 18.8329C42.7183 16.6299 40.38 16.3289 39.5584 16.3049C37.5945 16.0979 35.6896 17.4819 34.6892 17.4819C33.6689 17.4819 32.1284 16.3249 30.468 16.3589C28.3315 16.3919 26.3327 17.6309 25.2365 19.5549C22.9741 23.4779 24.6614 29.2429 26.8289 32.4139C27.9132 33.9679 29.1801 35.7009 30.8384 35.6399C32.4608 35.5739 33.0668 34.6049 35.0247 34.6049C36.9646 34.6049 37.5336 35.6399 39.2249 35.6009C40.9661 35.5739 42.0623 34.0409 43.1086 32.4739C44.3616 30.6949 44.8648 28.9409 44.8848 28.8509C44.8448 28.8369 41.5042 27.5589 41.4703 23.6969Z" fill="#474B4E"/>
<path d="M38.2754 14.2189C39.148 13.1259 39.745 11.6389 39.5793 10.1299C38.3163 10.1859 36.7369 11.0049 35.8273 12.0739C35.0226 13.0159 34.3038 14.5599 34.4895 16.0119C35.9082 16.1179 37.3649 15.2949 38.2754 14.2189Z" fill="#474B4E"/>
<path fill-rule="evenodd" clip-rule="evenodd" d="M62.703 35.4169H64.9703L60.6733 22.1089H58.0315L53.7534 35.4169H55.9609L57.1439 31.5079H61.461L62.703 35.4169ZM59.9638 26.3929L61.087 29.8679H57.5187L58.6229 26.3929C58.9115 25.2879 59.1221 24.4519 59.2539 23.8859H59.2939C59.6213 25.2019 59.845 26.0379 59.9638 26.3929Z" fill="#474B4E"/>
<path fill-rule="evenodd" clip-rule="evenodd" d="M74.6219 34.3699C75.5074 33.4229 75.9497 32.1329 75.9497 30.5009C75.9497 29.0399 75.5713 27.8619 74.8175 26.9649C74.0628 26.0699 73.1193 25.6229 71.9891 25.6229C70.5434 25.6229 69.4662 26.1959 68.7563 27.3419H68.7164L68.5976 25.8209H66.7256C66.7775 26.8989 66.8045 27.9499 66.8045 28.9749V39.3079H68.933V34.2729C69.4871 35.1809 70.3997 35.6339 71.6686 35.6339C72.8437 35.6339 73.8291 35.2129 74.6219 34.3699ZM73.1492 28.2679C73.5705 28.8749 73.7802 29.6449 73.7802 30.5789C73.7802 31.5929 73.5565 32.4089 73.1093 33.0279C72.663 33.6449 72.039 33.9559 71.2373 33.9559C70.5544 33.9559 69.9993 33.7149 69.572 33.2349C69.1446 32.7529 68.931 32.1639 68.931 31.4669V29.8659C68.931 29.6959 68.9639 29.4809 69.0298 29.2169C69.1606 28.6509 69.4402 28.1939 69.8675 27.8439C70.2938 27.4969 70.771 27.3209 71.2962 27.3209C72.0709 27.3209 72.6889 27.6369 73.1492 28.2679Z" fill="#474B4E"/>
<path fill-rule="evenodd" clip-rule="evenodd" d="M85.6419 34.3699C86.5275 33.4229 86.9697 32.1329 86.9697 30.5009C86.9697 29.0399 86.5904 27.8619 85.8376 26.9649C85.0808 26.0699 84.1373 25.6229 83.0081 25.6229C81.5615 25.6229 80.4842 26.1959 79.7754 27.3419H79.7354L79.6166 25.8209H77.7446C77.7965 26.8989 77.8235 27.9499 77.8235 28.9749V39.3079H79.9521V34.2729C80.5062 35.1809 81.4187 35.6339 82.6877 35.6339C83.8638 35.6339 84.8482 35.2129 85.6419 34.3699ZM84.1676 28.2679C84.5889 28.8749 84.7996 29.6449 84.7996 30.5789C84.7996 31.5929 84.5759 32.4089 84.1286 33.0279C83.6834 33.6449 83.0594 33.9559 82.2567 33.9559C81.5718 33.9559 81.0167 33.7139 80.5893 33.2349C80.164 32.7529 79.9494 32.1639 79.9494 31.4669V29.8659C79.9494 29.6959 79.9843 29.4809 80.0492 29.2169C80.18 28.6509 80.4586 28.1939 80.8859 27.8439C81.3142 27.4969 81.7914 27.3209 82.3166 27.3209C83.0913 27.3209 83.7073 27.6369 84.1676 28.2679Z" fill="#474B4E"/>
<path d="M99.289 31.6839C99.289 32.8169 98.8937 33.7379 98.108 34.4489C97.2433 35.2249 96.0363 35.6139 94.4888 35.6139C93.0591 35.6139 91.9129 35.3379 91.0483 34.7849L91.5405 33.0079C92.474 33.5619 93.4994 33.8379 94.6156 33.8379C95.4183 33.8379 96.0423 33.6559 96.4876 33.2949C96.9338 32.9329 97.1595 32.4489 97.1595 31.8449C97.1595 31.3039 96.9728 30.8509 96.6064 30.4819C96.238 30.1139 95.629 29.7709 94.7733 29.4559C92.4471 28.5869 91.283 27.3159 91.283 25.6439C91.283 24.5519 91.6943 23.6579 92.515 22.9589C93.3357 22.2609 94.4239 21.9119 95.7777 21.9119C96.9868 21.9119 97.9941 22.1229 98.7938 22.5439L98.2597 24.2819C97.5069 23.8739 96.6573 23.6699 95.7068 23.6699C94.956 23.6699 94.367 23.8549 93.9457 24.2229C93.5912 24.5519 93.4115 24.9529 93.4115 25.4289C93.4115 25.9539 93.6162 26.3899 94.0235 26.7319C94.377 27.0469 95.0219 27.3899 95.9544 27.7579C97.0986 28.2199 97.9392 28.7579 98.4774 29.3759C99.0195 29.9939 99.289 30.7649 99.289 31.6839Z" fill="#474B4E"/>
<path d="M106.344 27.4209H103.998V32.0799C103.998 33.2649 104.411 33.8559 105.24 33.8559C105.621 33.8559 105.936 33.8239 106.186 33.7569L106.245 35.3759C105.825 35.5329 105.273 35.6119 104.589 35.6119C103.749 35.6119 103.092 35.3549 102.617 34.8409C102.145 34.3269 101.908 33.4659 101.908 32.2539V27.4169H100.51V25.8169H101.908V24.0599L103.998 23.4279V25.8169H106.344V27.4209Z" fill="#474B4E"/>
<path fill-rule="evenodd" clip-rule="evenodd" d="M115.647 34.1728C116.487 33.2258 116.909 32.0148 116.909 30.5398C116.909 29.1038 116.502 27.9338 115.686 27.0278C114.831 26.0938 113.702 25.6258 112.296 25.6258C110.838 25.6258 109.677 26.0998 108.816 27.0478C107.956 27.9948 107.525 29.2128 107.525 30.6998C107.525 32.1208 107.942 33.2988 108.777 34.2338C109.612 35.1668 110.731 35.6338 112.138 35.6338C113.597 35.6338 114.767 35.1478 115.647 34.1728ZM114.132 28.3249C114.513 28.9559 114.702 29.7099 114.702 30.5889C114.702 31.4699 114.506 32.2289 114.114 32.8749C113.653 33.6479 113.015 34.0369 112.201 34.0369C111.37 34.0369 110.728 33.6559 110.268 32.8939C109.886 32.2649 109.696 31.5089 109.696 30.6289C109.696 29.7229 109.886 28.9559 110.268 28.3249C110.713 27.5629 111.367 27.1819 112.219 27.1819C113.047 27.1819 113.686 27.5629 114.132 28.3249Z" fill="#474B4E"/>
<path d="M123.832 27.6959C123.622 27.6569 123.396 27.6369 123.161 27.6369C122.413 27.6369 121.834 27.9189 121.426 28.4869C121.073 28.9869 120.895 29.6189 120.895 30.3819V35.4169H118.766V28.8429C118.766 27.7379 118.746 26.7299 118.705 25.8219H120.559L120.636 27.6579H120.695C120.921 27.0269 121.274 26.5179 121.76 26.1369C122.234 25.7939 122.746 25.6229 123.298 25.6229C123.495 25.6229 123.673 25.6369 123.83 25.6619L123.832 27.6959Z" fill="#474B4E"/>
<path fill-rule="evenodd" clip-rule="evenodd" d="M133.274 31.1319C133.327 30.8689 133.352 30.5469 133.352 30.1649C133.352 28.9679 133.069 27.9599 132.507 27.1469C131.797 26.1209 130.752 25.6079 129.371 25.6079C127.965 25.6079 126.848 26.1209 126.021 27.1469C125.232 28.1079 124.837 29.3129 124.837 30.7589C124.837 32.2319 125.262 33.4079 126.108 34.2829C126.957 35.1569 128.123 35.5949 129.609 35.5949C130.844 35.5949 131.914 35.3979 132.821 35.0019L132.487 33.5229C131.711 33.8259 130.849 33.9759 129.903 33.9759C129.049 33.9759 128.353 33.7519 127.815 33.3059C127.222 32.8059 126.912 32.0799 126.888 31.1319H133.274ZM130.91 27.9729C131.199 28.4339 131.338 28.9789 131.323 29.6119L126.89 29.6099C126.955 28.9669 127.166 28.4129 127.52 27.9519C127.952 27.3719 128.519 27.0829 129.215 27.0829C129.974 27.0829 130.542 27.3789 130.91 27.9729Z" fill="#474B4E"/>
<path fill-rule="evenodd" clip-rule="evenodd" d="M58.9433 17.3459H60.0585L57.9449 10.8049H56.647L54.5444 17.3459H55.6297L56.2117 15.4249H58.3333L58.9433 17.3459ZM57.5977 12.9109L58.1498 14.6189H56.3957L56.9378 12.9109C57.0701 12.4179 57.1622 12.0362 57.2288 11.7598C57.2355 11.7317 57.242 11.7048 57.2483 11.6789H57.2683C57.433 12.3289 57.5398 12.7359 57.5977 12.9109Z" fill="#474B4E"/>
<path d="M65.3172 12.6299L63.5341 17.3459H62.5167L60.7915 12.6299H61.9157L62.7204 15.1239C62.8562 15.5409 62.972 15.9389 63.0588 16.3169H63.0878C63.1657 15.9779 63.2815 15.5799 63.4263 15.1239L64.221 12.6299H65.3172Z" fill="#474B4E"/>
<path fill-rule="evenodd" clip-rule="evenodd" d="M69.0354 16.8029L69.1133 17.3459L70.0548 17.3469C70.0069 17.0659 69.9869 16.6969 69.9869 16.2209V14.4839C69.9869 13.1829 69.3659 12.5329 68.1359 12.5329C67.4959 12.5329 66.9538 12.6689 66.5175 12.9409L66.7301 13.6299C67.0876 13.3969 67.4949 13.2799 67.9602 13.2799C68.6091 13.2799 68.9386 13.5909 68.9386 14.2119V14.2989C67.1944 14.2989 66.187 14.9009 66.187 16.0649C66.187 16.8609 66.788 17.4529 67.6307 17.4529C68.2217 17.4529 68.687 17.2399 69.0065 16.8029H69.0354ZM67.2225 15.9479C67.2225 15.2789 67.8036 14.9969 68.9667 14.9969V15.7249C68.9667 16.2779 68.4725 16.6849 67.9393 16.6849C67.523 16.6849 67.2225 16.4429 67.2225 15.9479Z" fill="#474B4E"/>
<path fill-rule="evenodd" clip-rule="evenodd" d="M71.6963 11.2219C71.6963 11.5809 71.9679 11.8529 72.3163 11.8529C72.7047 11.8529 72.9752 11.6009 72.9752 11.2219C72.9852 10.8629 72.6947 10.6009 72.3363 10.6009C71.9768 10.6009 71.6963 10.8629 71.6963 11.2219ZM71.8135 17.3459H72.8598V12.6299H71.8135V17.3459Z" fill="#474B4E"/>
<path d="M75.7651 17.3459H74.7188V10.4659H75.7651V17.3459Z" fill="#474B4E"/>
<path fill-rule="evenodd" clip-rule="evenodd" d="M80.1341 16.8029L80.2119 17.3459H81.1514C81.1055 17.0649 81.0845 16.6959 81.0845 16.2199V14.4829C81.0845 13.1819 80.4635 12.5319 79.2335 12.5319C78.5935 12.5319 78.0514 12.6679 77.6151 12.9399L77.8288 13.6299C78.1862 13.3969 78.5935 13.2799 79.0588 13.2799C79.7077 13.2799 80.0372 13.5909 80.0372 14.2119V14.2989C78.293 14.2989 77.2856 14.9009 77.2856 16.0649C77.2856 16.8609 77.8867 17.4529 78.7293 17.4529C79.3204 17.4529 79.7856 17.2399 80.1051 16.8029H80.1341ZM78.3201 15.9479C78.3201 15.2789 78.9012 14.9969 80.0643 14.9969V15.7249C80.0643 16.2779 79.5701 16.6849 79.037 16.6849C78.6207 16.6849 78.3201 16.4429 78.3201 15.9479Z" fill="#474B4E"/>
<path fill-rule="evenodd" clip-rule="evenodd" d="M83.8421 16.6179C84.1615 17.1709 84.6547 17.4529 85.3227 17.4529C86.5237 17.4529 87.4063 16.3849 87.4063 14.9209C87.4063 13.5049 86.6116 12.5339 85.4774 12.5339C84.7885 12.5339 84.2863 12.7959 83.9758 13.3199H83.9559V10.4659H82.9086V16.0749C82.9086 16.5399 82.8986 16.9679 82.8696 17.3459H83.7612L83.8211 16.6179H83.8421ZM83.9565 14.6089C83.9565 13.8809 84.5077 13.3569 85.1097 13.3569C85.8555 13.3569 86.3407 14.0079 86.3417 14.9589C86.3417 15.9779 85.8754 16.6179 85.0917 16.6179C84.4517 16.6179 83.9565 16.0839 83.9565 15.4339V14.6089Z" fill="#474B4E"/>
<path d="M90.0009 17.3459H88.9556V10.4659H90.0009V17.3459Z" fill="#474B4E"/>
<path fill-rule="evenodd" clip-rule="evenodd" d="M92.5558 15.2399H95.6967C95.7266 15.1139 95.7356 14.9489 95.7316 14.7649C95.7316 13.4159 94.9749 12.5229 93.7738 12.5229C92.4389 12.5229 91.5464 13.6099 91.5464 15.0559C91.5464 16.5009 92.418 17.4329 93.8916 17.4329C94.5016 17.4329 95.0248 17.3359 95.4701 17.1419L95.3073 16.4139C94.9299 16.5589 94.5036 16.6369 94.0384 16.6369C93.1658 16.6369 92.5767 16.1329 92.5558 15.2399ZM93.7003 13.2509C94.3692 13.2509 94.7376 13.7649 94.7376 14.4929H92.5562C92.626 13.7749 93.0993 13.2509 93.7003 13.2509Z" fill="#474B4E"/>
<path fill-rule="evenodd" clip-rule="evenodd" d="M99.771 15.0269C99.771 16.4239 100.663 17.4529 102.038 17.4529C103.444 17.4529 104.385 16.4239 104.385 14.9499C104.385 13.5129 103.472 12.5329 102.117 12.5329C100.682 12.5329 99.771 13.5709 99.771 15.0269ZM100.839 14.9969C100.839 14.0069 101.323 13.2989 102.079 13.2989C102.815 13.2989 103.299 14.0169 103.298 14.9769C103.298 15.9189 102.805 16.6759 102.069 16.6759C101.333 16.6759 100.839 15.9679 100.839 14.9969Z" fill="#474B4E"/>
<path d="M110.009 17.3459H108.963V14.6379C108.963 13.8039 108.644 13.3859 108.014 13.3859C107.394 13.3859 106.967 13.9199 106.967 14.5409V17.3459H105.921V13.9779C105.921 13.5609 105.91 13.1139 105.882 12.6289H106.803L106.852 13.3569H106.881C107.16 12.8529 107.733 12.5319 108.372 12.5319C109.36 12.5319 110.009 13.2889 110.009 14.5209V17.3459Z" fill="#474B4E"/>
<path d="M116.854 13.4159H115.703V15.7059C115.703 16.2889 115.906 16.5799 116.312 16.5799C116.497 16.5799 116.652 16.5599 116.777 16.5309L116.806 17.3269C116.603 17.4049 116.33 17.4439 115.994 17.4439C115.169 17.4439 114.677 16.9879 114.677 15.7939V13.4159H113.99V12.6299H114.677V11.7659L115.703 11.4549V12.6289H116.854V13.4159Z" fill="#474B4E"/>
<path d="M122.396 17.3459H121.348V14.6579C121.348 13.8139 121.029 13.3869 120.399 13.3869C119.857 13.3869 119.353 13.7559 119.353 14.5029V17.3459H118.306V10.4659H119.353V13.2989H119.373C119.703 12.7849 120.178 12.5319 120.788 12.5319C121.786 12.5319 122.396 13.3079 122.396 14.5409V17.3459Z" fill="#474B4E"/>
<path fill-rule="evenodd" clip-rule="evenodd" d="M124.603 15.2399H127.743C127.772 15.1139 127.782 14.9489 127.778 14.7649C127.778 13.4159 127.021 12.5229 125.82 12.5229C124.485 12.5229 123.592 13.6099 123.592 15.0559C123.592 16.5009 124.464 17.4329 125.938 17.4329C126.548 17.4329 127.072 17.3359 127.517 17.1419L127.353 16.4139C126.976 16.5589 126.551 16.6369 126.084 16.6369C125.212 16.6369 124.623 16.1329 124.603 15.2399ZM125.747 13.2509C126.416 13.2509 126.783 13.7649 126.783 14.4929H124.603C124.672 13.7749 125.145 13.2509 125.747 13.2509Z" fill="#474B4E"/>
</svg>
