<svg width="126" height="209" viewBox="0 0 126 209" fill="none" xmlns="http://www.w3.org/2000/svg">
<path d="M26.9268 82.6502L24.6458 75.0775C24.6458 75.0775 24.6043 66.9223 16.3512 61.9293C8.13952 56.9363 3.20422 62.7614 3.28716 64.5506C3.41158 67.588 8.51278 77.1163 21.0377 80.4866L26.9268 82.6502Z" fill="#F7A184"/>
<path d="M14.4021 75.0774C15.0656 75.7016 15.978 75.5351 16.5172 74.911L22.987 68.0456C23.5676 67.4215 23.8579 66.3397 23.1944 65.7156L9.30087 52.5673C8.6373 51.9432 7.43458 52.1929 6.85395 52.817L0.425618 59.6407C-0.155005 60.2649 -0.155005 61.2635 0.508565 61.9292L14.4021 75.0774Z" fill="#4F4F4F"/>
<path d="M9.8241 53.4291L1.65283 62.1118L13.5641 73.3946L21.7354 64.7119L9.8241 53.4291Z" fill="#7BCDDB"/>
<path d="M19.6466 71.3989C20.0869 70.931 20.0656 70.1936 19.5993 69.752C19.1329 69.3103 18.3979 69.3316 17.9577 69.7995C17.5175 70.2674 17.5387 71.0048 18.0051 71.4464C18.4715 71.8881 19.2064 71.8668 19.6466 71.3989Z" fill="#D3D3D3"/>
<path d="M3.74361 57.3938C3.66066 57.3106 3.66066 57.1442 3.74361 57.0609L5.40253 55.3134C5.48548 55.2302 5.65137 55.2302 5.73432 55.3134L5.85874 55.4382C5.94168 55.5214 5.94168 55.6879 5.85874 55.7711L4.19981 57.5186C4.11686 57.6019 3.95097 57.6019 3.86803 57.5186L3.74361 57.3938Z" fill="#D3D3D3"/>
<path d="M24.2312 71.9568L25.9316 72.7057C29.6227 74.2869 44.636 82.3173 49.7787 87.227C50.1105 87.5183 50.4008 87.8096 50.6496 88.1424L50.774 88.2673L50.9399 88.4753L51.1058 88.7666C51.1473 88.8082 51.1888 88.8914 51.2302 89.0162C51.6035 89.7235 51.8109 90.5141 51.8523 91.3463C51.8938 91.7207 51.8523 92.1784 51.8109 92.5945C51.7279 93.2602 51.4791 93.8844 51.1888 94.4669C50.857 95.0494 50.6081 95.3823 50.4837 95.4655C50.2764 95.7151 50.069 95.9232 49.8616 96.0896L49.7372 96.2144L49.5298 96.3809C49.5713 96.3809 49.6128 96.3393 49.6543 96.2977C49.5713 96.3809 49.3639 96.5057 49.1151 96.6721C47.6635 97.5875 45.8802 97.7956 44.2627 97.2963C43.3089 97.0466 42.355 96.6305 41.4011 96.0064C40.4887 95.3823 39.3274 94.6749 37.8759 93.7596C30.4937 89.1826 22.7382 83.3991 20.1669 81.3187L18.6738 80.0704L24.2312 71.9568Z" fill="#0099DD"/>
<path d="M26.3464 72.9137C26.1805 72.8305 26.056 72.7889 25.9316 72.7472L24.2312 71.9983L18.6738 80.0287L20.1669 81.2769C20.2913 81.4018 20.4572 81.5266 20.6231 81.6514L26.3464 72.9137Z" fill="#0083CA"/>
<path d="M66.1606 62.1372C66.1606 62.1372 77.1924 59.5159 91.5006 62.1372L93.0351 67.6711H65.7043L66.1606 62.1372Z" fill="#0075A8"/>
<path d="M43.2259 96.3392L43.1429 96.2976C42.6452 95.9231 42.3549 95.5071 42.189 95.2158C42.0232 94.9245 41.8573 94.6749 41.7328 94.4252V94.3836V94.342L41.6914 94.2172L41.6499 94.0924C39.4103 89.2658 45.1336 82.6085 54.1333 72.9554C55.1701 71.8735 56.124 70.7917 57.0364 69.8347L57.4512 69.377L58.0318 69.169C60.3543 67.7543 63.3403 67.8791 65.5384 69.4603L65.6214 69.5019C66.4923 70.1676 67.2388 71.083 67.695 72.0816C68.5245 73.9123 68.5245 76.0344 67.6535 77.8651C67.6121 77.9484 67.5706 78.0732 67.5291 78.1564C67.5291 78.198 67.4877 78.2396 67.4462 78.2812C66.0361 80.9025 61.5985 85.6043 55.0042 92.4281L54.8798 92.5529L54.2162 93.2186C52.6403 94.8829 51.3961 95.9648 50.3593 96.6305C49.8201 97.0466 49.198 97.2962 48.5759 97.4627C47.9538 97.6291 47.3732 97.7123 46.7511 97.6707C46.2119 97.6291 45.6728 97.5043 45.0507 97.2546H45.0092L44.9263 97.213L44.8433 97.1714L44.7189 97.1298C44.636 97.0882 44.5115 97.0466 44.3456 96.9634L44.2212 96.9217L44.0553 96.8385C43.765 96.6721 43.4747 96.5057 43.2673 96.3392H43.2259Z" fill="#0099DD"/>
<path d="M69.976 184.466H61.2666V203.314H69.976V184.466Z" fill="#B3B3B3"/>
<path d="M65.6629 174.937H65.6214H65.497C60.5617 174.771 56.6632 170.61 56.7877 165.7L55.8752 137.615V137.407L55.9167 137.199C56.1656 131.789 60.6032 127.67 65.9532 127.753H66.2021C68.8563 127.878 71.2618 129.002 73.0451 130.957C74.8285 132.913 75.7409 135.451 75.6579 138.072C75.6579 138.197 75.6579 138.322 75.6165 138.447L74.87 165.534C74.87 165.742 74.87 165.908 74.87 166.116C74.7041 171.068 70.5567 175.021 65.6629 174.937Z" fill="#3D566B"/>
<path d="M74.4966 189.334L74.8699 166.158C74.9528 163.745 74.0819 161.415 72.4644 159.667C70.8055 157.878 68.566 156.879 66.1605 156.796H66.0361H65.9946C61.1008 156.713 56.9535 160.624 56.7876 165.534C56.7876 165.908 56.7876 166.283 56.8291 166.657L57.2853 189.209V189.084C57.2853 189.25 57.2853 189.417 57.2853 189.583H74.4137C74.4137 189.542 74.4137 189.459 74.4137 189.417L74.4966 189.334Z" fill="#3D566B"/>
<path d="M101.271 184.118L92.5952 184.89L94.2544 203.665L102.93 202.893L101.271 184.118Z" fill="#B3B3B3"/>
<path d="M56.2899 142.191C59.1515 146.311 66.6996 148.724 76.0726 147.975H83.3304C91.7909 147.975 99.1316 148.932 101.952 145.312C107.219 134.91 104.067 130.333 104.15 121.346L55.4604 121.429C55.5849 127.171 54.5065 132.705 56.2899 142.191Z" fill="#3D566B"/>
<path opacity="0.15" d="M104.399 126.214C104.274 124.716 104.15 123.135 104.191 121.346L55.5019 121.429C55.5434 123.052 55.4604 124.633 55.4189 126.339C64.0868 128.128 83.123 129.168 104.399 126.214Z" fill="black"/>
<path d="M95.7308 174.729H95.6894H95.5649C90.6296 174.979 86.3994 171.234 86.0676 166.324L82.6253 138.447L82.5838 138.239V138.031C82.3765 132.622 86.3994 128.128 91.7494 127.712H91.9982C94.6525 127.587 97.1409 128.503 99.1316 130.292C101.081 132.081 102.242 134.494 102.367 137.157C102.367 137.282 102.367 137.407 102.367 137.532L104.025 164.577C104.067 164.785 104.067 164.951 104.067 165.159C104.357 170.111 100.583 174.396 95.7308 174.729Z" fill="#3D566B"/>
<path d="M123.476 90.8883L123.435 90.9716C123.103 91.5125 122.688 91.8453 122.44 92.0534C122.191 92.2614 121.942 92.4278 121.693 92.5943L121.652 92.6359H121.61L121.486 92.7191L121.361 92.7607C116.758 95.4236 109.624 90.2642 99.2975 82.109C98.1363 81.1936 96.975 80.2782 95.9382 79.4877L95.4405 79.1132L95.1917 78.5723C93.5742 76.367 93.4498 73.3712 94.8599 71.0412L94.9014 70.9579C95.482 70.001 96.3115 69.2104 97.2654 68.6695C99.0072 67.6709 101.122 67.5045 103.03 68.1702C103.155 68.2118 103.237 68.2534 103.32 68.295C103.362 68.295 103.403 68.3366 103.445 68.3366C106.182 69.5017 111.2 73.5377 118.583 79.5293L118.748 79.6541L119.453 80.2366C121.237 81.6929 122.398 82.8163 123.186 83.8149C123.642 84.3142 123.974 84.8967 124.181 85.5209C124.43 86.1034 124.513 86.6859 124.513 87.31C124.513 87.8509 124.43 88.4334 124.264 89.016V89.0576L124.223 89.1408L124.181 89.224L124.14 89.3488C124.098 89.432 124.057 89.5985 124.016 89.7233L123.974 89.8481L123.891 90.0146C123.767 90.3474 123.601 90.6387 123.476 90.8467V90.8883Z" fill="#00A8DE"/>
<path d="M101.952 68.0454C94.1547 66.5891 84.7403 65.7986 84.7403 65.7986L71.4275 66.1731C71.4275 66.1731 68.317 66.6307 59.1514 68.5447C59.1514 68.5447 55.2529 120.763 55.2529 122.511C68.1511 126.464 85.8601 127.462 104.647 122.511C104.606 122.178 101.952 68.0454 101.952 68.0454Z" fill="#BBEDF2"/>
<path d="M78.8099 75.327C87.063 75.327 89.8417 69.2106 90.7126 66.3812C87.2289 65.9651 84.7405 65.7571 84.7405 65.7571L71.4276 66.1316C71.4276 66.1316 70.2249 66.298 67.0315 66.9221C67.6536 69.2522 70.1005 75.327 78.8099 75.327Z" fill="#AB4A9C"/>
<path d="M78.9341 82.9829L83.2888 91.8871L93.0764 93.3018L85.9845 100.209L87.6434 109.987L78.9341 105.368L70.1833 109.987L71.8422 100.209L64.7917 93.3018L74.5379 91.8871L78.9341 82.9829Z" fill="#AB4A9C"/>
<path d="M78.9343 91.1382L80.6762 94.6333L84.5332 95.2158L81.7545 97.962L82.418 101.832L78.9343 100.001L75.4505 101.832L76.1141 97.962L73.2939 95.2158L77.1924 94.6333L78.9343 91.1382Z" fill="#87328C"/>
<path d="M65.7043 67.1719C64.0039 67.5047 61.8058 67.9624 59.1515 68.5033C59.1515 68.5033 54.4236 126.006 54.4236 127.754C57.3267 128.627 61.3081 129.376 64.626 129.959C66.2849 106.658 65.8702 74.6198 65.7043 67.1719Z" fill="#00A8DE"/>
<path d="M101.952 68.0455C98.9243 67.463 94.5281 67.0053 91.625 66.6309L93.7401 130.292C97.4727 129.751 101.993 129.002 105.85 127.962C105.892 127.67 101.952 68.0455 101.952 68.0455Z" fill="#00A8DE"/>
<path d="M54.4236 127.754C57.3267 128.627 61.3081 129.376 64.626 129.959C64.7089 128.752 64.7918 127.545 64.8748 126.339C60.0639 125.631 56.5802 124.758 54.6724 124.217C54.5065 126.214 54.3821 127.504 54.4236 127.754Z" fill="#0083CA"/>
<path d="M93.6572 126.422L93.7816 130.292C97.5142 129.751 102.035 129.002 105.892 127.962C105.892 127.92 105.809 126.547 105.643 124.3C101.454 125.257 97.4313 125.923 93.6572 126.422Z" fill="#0083CA"/>
<path d="M78.3951 73.3713C83.3304 73.2881 87.6851 69.9594 87.8924 66.5476C83.3719 66.0899 79.4319 66.506 79.4319 66.506L78.3951 66.5476C78.3951 66.5476 74.3307 66.2979 69.271 67.1301C69.7687 70.4587 73.5427 73.4545 78.3951 73.3713Z" fill="#F7A184"/>
<path d="M84.782 55.6045H71.3447V69.3769H84.782V55.6045Z" fill="#F7A184"/>
<path d="M84.782 65.008V55.6045H71.3447V63.302C74.082 64.1758 79.2246 65.4657 84.782 65.008Z" fill="#DD725E"/>
<path d="M60.3126 37.5882C60.3126 37.5882 53.594 35.2165 53.594 41.9571C53.594 48.6976 60.3126 46.7004 60.3126 46.7004V37.5882Z" fill="#EE8C72"/>
<path d="M59.5663 26.1459C59.5248 26.4371 59.5248 26.77 59.4833 27.1029C59.9395 30.0154 60.9764 38.1707 58.0732 38.2955C58.2391 40.043 58.3636 42.2067 58.2806 44.62C58.2806 44.62 56.8291 43.0388 56.2484 40.4175C55.6678 37.7962 52.35 34.1763 52.7647 30.6812C52.7647 30.6812 51.1887 27.4773 55.0872 24.5647C55.7508 24.0654 56.2484 23.6078 56.6217 23.1085C56.6217 23.1085 59.4419 22.4843 59.5663 26.1459Z" fill="#2D1302"/>
<path d="M95.5647 37.5882C95.5647 37.5882 102.283 35.2165 102.283 41.9571C102.283 48.6976 95.5647 46.7004 95.5647 46.7004V37.5882Z" fill="#F7A184"/>
<path d="M96.1868 45.0361C96.1868 54.8141 87.6434 62.7612 77.1507 62.7612C66.6165 62.7612 58.1145 54.8141 58.1145 45.0361V29.3082C58.1145 19.5302 66.658 11.583 77.1507 11.583C87.6848 11.583 96.1868 19.5302 96.1868 29.3082V45.0361Z" fill="#F7A184"/>
<path d="M77.1507 61.8042C66.6165 61.8042 58.1145 53.8571 58.1145 44.0791V45.0361C58.1145 54.814 66.658 62.7612 77.1507 62.7612C87.6848 62.7612 96.1868 54.814 96.1868 45.0361V44.0791C96.1868 53.8571 87.6434 61.8042 77.1507 61.8042Z" fill="#EE8C72"/>
<path d="M78.6023 28.9337L84.7403 25.397C84.7403 25.397 86.1089 27.6854 88.6802 27.0613C90.7124 26.562 88.4729 32.3872 96.1869 35.7158V29.3082C96.1869 19.5302 87.6434 11.583 77.1507 11.583C67.0313 11.583 58.7781 18.9061 58.156 28.1847C59.0269 27.8935 59.9808 27.4774 60.6859 26.7284C60.6859 26.77 67.7363 33.0945 78.6023 28.9337Z" fill="#EE8C72"/>
<path d="M100.873 18.3652C99.7536 17.6163 98.9241 16.8673 98.2605 16.0768C101.247 11.9575 92.952 6.09076 92.952 6.09076C93.2838 -1.14909 80.8004 -0.441747 77.5655 0.764894C75.4918 1.55545 72.5887 4.17678 72.5887 4.17678C71.9666 3.92713 71.386 3.71908 70.8468 3.59426H70.8883H70.8468C63.2987 2.38762 61.7642 7.42222 61.1836 8.00474C58.156 7.38062 51.0227 7.96313 48.1195 12.4568C44.9676 17.325 48.949 20.5705 48.949 20.5705C45.6311 25.4386 52.7645 27.6439 52.7645 27.6439C54.299 28.1432 55.6262 28.0183 56.7459 27.6439L60.5615 24.5649C74.455 33.8851 84.4085 23.6911 84.4085 23.6911C90.5051 24.8145 92.0811 23.7743 93.1179 21.8603C93.1594 22.2348 93.6156 22.5677 93.657 23.0253C89.9659 27.1862 91.0028 37.0473 95.3989 37.2554C95.1086 39.6271 95.3989 42.6229 95.5648 45.9099C95.5648 45.9099 98.302 43.3718 99.173 39.8351C100.044 36.2984 105.145 31.3886 104.482 26.6453C104.399 26.6453 106.804 22.318 100.873 18.3652Z" fill="#472004"/>
<path d="M84.2426 45.0776C85.365 45.0776 86.2748 44.0344 86.2748 42.7475C86.2748 41.4607 85.365 40.4175 84.2426 40.4175C83.1203 40.4175 82.2104 41.4607 82.2104 42.7475C82.2104 44.0344 83.1203 45.0776 84.2426 45.0776Z" fill="#843B09"/>
<path d="M65.5798 45.0776C66.7021 45.0776 67.612 44.0344 67.612 42.7475C67.612 41.4607 66.7021 40.4175 65.5798 40.4175C64.4575 40.4175 63.5476 41.4607 63.5476 42.7475C63.5476 44.0344 64.4575 45.0776 65.5798 45.0776Z" fill="#843B09"/>
<path d="M70.5979 52.2345H81.1321C81.1321 52.2345 82.169 52.1929 81.4224 53.8156C80.9662 54.8142 79.6806 56.9362 76.0309 57.061C71.7177 57.1859 70.2247 53.7324 70.2247 53.7324C70.2247 53.7324 69.5196 52.2345 70.5979 52.2345Z" fill="#D24646"/>
<path d="M81.5884 53.3577C81.9616 52.1927 81.1322 52.2343 81.1322 52.2343H70.598C69.81 52.2343 70.0174 53.0665 70.1418 53.4826C72.174 54.0235 76.3213 54.6892 81.5884 53.3577Z" fill="white"/>
<path d="M73.9988 45.5769C73.9988 45.5769 71.0957 45.4521 71.0957 47.9486C71.0957 50.4451 75.5748 49.7794 75.7407 47.9486C75.8651 46.1178 76.1139 32.5119 73.9988 45.5769Z" fill="#EE8C72"/>
<path d="M88.5145 50.5284C90.9882 50.5284 92.9936 49.8019 92.9936 48.9057C92.9936 48.0095 90.9882 47.283 88.5145 47.283C86.0408 47.283 84.0354 48.0095 84.0354 48.9057C84.0354 49.8019 86.0408 50.5284 88.5145 50.5284Z" fill="#EE8C72"/>
<path d="M65.7041 48.9057C65.7041 49.4466 64.5429 49.8627 63.0913 49.8627C61.6398 49.8627 60.4785 49.4466 60.4785 48.9057C60.4785 48.3648 61.6398 47.9487 63.0913 47.9487C64.5429 47.9487 65.7041 48.3648 65.7041 48.9057Z" fill="#EE8C72"/>
<path d="M80.7175 37.6298C80.5931 37.2137 80.8834 36.756 81.2982 36.6728C81.3396 36.6728 82.7912 36.2983 84.5745 36.2983C85.4455 36.2983 86.3994 36.3816 87.3532 36.7144C87.768 36.8392 87.9753 37.2969 87.8509 37.713C87.7265 38.1291 87.2703 38.3372 86.8556 38.2123C86.192 38.0043 85.3625 37.8795 84.616 37.8795C83.828 37.8795 83.123 37.9627 82.5838 38.0459C82.0447 38.1291 81.7544 38.2123 81.7544 38.2123C81.6714 38.2123 81.6299 38.2539 81.547 38.2539C81.1323 38.2539 80.8005 38.0043 80.7175 37.6298Z" fill="#843B09"/>
<path d="M61.9302 37.6298C61.8058 37.2137 62.0961 36.756 62.5108 36.6728C62.5523 36.6728 64.0038 36.2983 65.7872 36.2983C66.6581 36.2983 67.612 36.3816 68.5659 36.7144C68.9806 36.8392 69.188 37.2969 69.0636 37.713C68.9391 38.1291 68.4829 38.3372 68.0682 38.2123C67.4046 38.0043 66.5752 37.8795 65.8287 37.8795C65.0407 37.8795 64.3356 37.9627 63.7965 38.0459C63.2573 38.1291 62.967 38.2123 62.967 38.2123C62.8841 38.2123 62.8426 38.2539 62.7596 38.2539C62.3449 38.2539 62.0131 38.0043 61.9302 37.6298Z" fill="#843B09"/>
<path d="M60.2715 195.409C60.2715 195.409 56.4559 199.278 49.9446 201.775C49.9446 201.775 38.1663 197.531 41.3182 208.016H71.9254C71.9254 208.016 72.9622 200.526 70.93 195.492C70.93 195.492 70.1835 195.117 69.0637 196.282C67.9854 197.447 64.3358 198.113 62.511 197.447C62.511 197.447 61.4742 195.034 60.2715 195.409Z" fill="#0083CA"/>
<path d="M49.9446 201.775C49.9446 201.775 38.1663 197.531 41.3182 208.016H71.9254C71.9254 208.016 72.0913 206.768 72.1328 205.228H51.9768C51.2718 203.356 49.9446 201.775 49.9446 201.775Z" fill="#E9E6ED"/>
<path d="M60.6447 200.36C60.3959 200.36 60.1885 200.235 60.0226 199.944C59.0687 197.947 57.7001 197.198 57.6586 197.156C57.3268 196.948 57.1609 196.49 57.3683 196.116C57.5342 195.741 57.9489 195.575 58.2807 195.783C58.3637 195.825 60.0226 196.782 61.2253 199.195C61.3912 199.569 61.3083 200.027 60.9765 200.235C60.8935 200.318 60.7691 200.36 60.6447 200.36Z" fill="#E9E6ED"/>
<path d="M57.9074 201.899C57.6586 201.899 57.4512 201.775 57.3268 201.483C56.3729 199.486 55.0043 198.737 54.9628 198.696C54.631 198.488 54.4651 198.03 54.6725 197.655C54.8384 197.281 55.2531 197.115 55.5849 197.323C55.6679 197.364 57.3268 198.321 58.5295 200.734C58.6954 201.109 58.6125 201.567 58.2807 201.775C58.1148 201.858 58.0318 201.899 57.9074 201.899Z" fill="#E9E6ED"/>
<path d="M55.1703 203.439C54.9215 203.439 54.7141 203.314 54.5482 203.023C53.5943 201.026 52.2257 200.277 52.1843 200.235C51.8525 200.027 51.6866 199.569 51.8939 199.195C52.0598 198.821 52.4746 198.654 52.8064 198.862C52.8893 198.904 54.5482 199.861 55.751 202.274C55.9168 202.648 55.8339 203.106 55.5021 203.314C55.3777 203.397 55.2533 203.439 55.1703 203.439Z" fill="#E9E6ED"/>
<path d="M68.815 203.772C69.8915 203.772 70.7642 202.896 70.7642 201.816C70.7642 200.736 69.8915 199.861 68.815 199.861C67.7384 199.861 66.8657 200.736 66.8657 201.816C66.8657 202.896 67.7384 203.772 68.815 203.772Z" fill="#E9E6ED"/>
<path d="M92.4131 208.016C92.4131 208.016 92.7863 201.9 93.6158 198.945C93.6158 198.945 96.1871 199.112 96.8922 198.072C97.6387 197.031 101.952 192.579 103.943 198.072L105.519 201.109C105.519 201.109 112.071 198.904 109.998 208.016H92.4131Z" fill="#0083CA"/>
<path d="M105.394 201.151C100.376 202.524 99.2976 205.228 99.2976 205.228H92.6619C92.496 206.768 92.4131 208.016 92.4131 208.016H109.998C112.154 198.737 105.394 201.151 105.394 201.151Z" fill="#E9E6ED"/>
<path d="M100.21 198.987C100.003 198.987 99.7538 198.862 99.6294 198.654C99.422 198.28 99.505 197.822 99.8368 197.572C99.9197 197.531 101.496 196.366 103.943 196.449C104.316 196.449 104.606 196.823 104.606 197.239C104.606 197.655 104.274 197.988 103.901 197.988C101.869 197.905 100.583 198.821 100.583 198.862C100.5 198.945 100.334 198.987 100.21 198.987Z" fill="#E9E6ED"/>
<path d="M101.33 201.151C101.123 201.151 100.874 201.026 100.749 200.818C100.542 200.443 100.625 199.985 100.957 199.736C101.04 199.694 102.616 198.529 105.062 198.612C105.436 198.612 105.726 198.987 105.726 199.403C105.726 199.819 105.394 200.152 105.021 200.152C102.989 200.069 101.703 200.984 101.703 200.984C101.579 201.109 101.454 201.151 101.33 201.151Z" fill="#E9E6ED"/>
<path d="M94.9429 203.772C95.4697 203.772 95.8968 202.896 95.8968 201.816C95.8968 200.736 95.4697 199.861 94.9429 199.861C94.4161 199.861 93.989 200.736 93.989 201.816C93.989 202.896 94.4161 203.772 94.9429 203.772Z" fill="#CCCCCC"/>
<path d="M105.767 188.377L105.809 188.294L104.108 165.201C103.984 162.788 102.906 160.582 101.122 158.96C99.3391 157.337 97.0166 156.546 94.6111 156.671H94.4867H94.4452C89.5514 157.004 85.8188 161.29 86.0677 166.2C86.0677 166.574 86.1506 166.949 86.1921 167.323L88.6805 189.75L88.639 189.625C88.639 189.791 88.6805 189.958 88.6805 190.124L105.767 188.585C105.767 188.502 105.767 188.46 105.767 188.377Z" fill="#3D566B"/>
<path d="M75.2016 191.83C75.2016 192.08 75.0358 192.247 74.7869 192.247H56.207C55.9581 192.247 55.7922 192.08 55.7922 191.83V187.045C55.7922 186.796 55.9581 186.629 56.207 186.629H74.7869C75.0358 186.629 75.2016 186.796 75.2016 187.045V191.83Z" fill="#617C8E"/>
<path d="M107.094 190.707C107.094 190.915 106.929 191.123 106.721 191.164L88.2242 192.829C88.0168 192.829 87.8095 192.662 87.768 192.454L87.3533 187.669C87.3533 187.461 87.5192 187.253 87.7265 187.212L106.224 185.547C106.472 185.547 106.638 185.714 106.68 185.922L107.094 190.707Z" fill="#617C8E"/>
<path d="M91.9155 75.7431L96.1872 79.1966L97.0996 67.3382C97.0996 67.3382 96.4775 63.8015 91.5007 62.1372L91.9155 75.7431Z" fill="#0083CA"/>
<path d="M65.7458 75.7431L61.4741 79.1966L60.8105 68.3368C60.8105 68.3368 61.1838 63.8015 66.1606 62.1372L65.7458 75.7431Z" fill="#0083CA"/>
<path d="M93.4499 127.337C93.0352 127.337 92.6619 127.254 92.3301 127.046C92.1228 126.921 91.791 126.755 91.7495 126.256C91.708 125.923 91.8739 125.548 92.1642 125.215C92.3716 125.007 92.579 124.841 92.7863 124.716C93.367 124.342 93.9061 123.676 94.4453 123.052C94.6112 122.844 94.8185 122.594 94.9844 122.386C94.4038 122.386 93.7402 122.386 93.5329 122.386L93.4914 122.428C93.4499 122.469 93.4084 122.511 93.4084 122.511C92.9522 122.885 92.496 123.135 92.0398 123.426C91.8739 123.551 91.708 123.634 91.5421 123.718C91.4177 123.801 91.2933 123.842 91.1689 123.884C91.0445 123.926 90.8786 124.009 90.7542 124.009C90.5883 124.05 90.4224 124.05 90.298 124.05C89.9662 124.05 89.5929 123.967 89.2197 123.801C88.9708 123.676 88.6805 123.551 88.4317 123.218C88.3072 123.052 88.1414 122.761 88.1414 122.428C88.1414 122.261 88.1828 122.095 88.2658 121.928C87.851 121.679 87.2704 121.263 87.146 120.597C87.0216 120.014 87.2704 119.474 87.8096 118.891C88.2243 118.475 90.215 116.478 91.0445 116.228C91.6251 116.062 92.8278 115.854 93.8232 115.687C93.5329 115.604 93.2425 115.479 92.9108 115.396C92.7863 115.354 92.6619 115.313 92.579 115.271C92.3716 115.188 92.2057 115.146 92.0398 115.105C91.8739 115.063 91.791 115.063 91.708 115.063C91.6666 115.063 91.6666 115.063 91.5836 115.105C91.5422 115.146 91.4592 115.146 91.3763 115.188C90.9201 115.354 90.4224 115.521 90.0491 115.562C89.9247 115.562 89.8003 115.604 89.6344 115.604C89.0952 115.604 88.1828 115.479 87.8096 114.522C87.6022 114.023 87.6022 113.399 87.8096 112.733C87.8096 112.483 87.9755 112.442 88.639 112.317C88.8049 112.275 89.3855 112.109 89.9247 111.901C90.8371 111.61 91.4592 111.401 91.708 111.36H91.7495C91.9984 111.318 92.2887 111.277 92.5375 111.277C92.6205 111.277 92.7034 111.277 92.7863 111.277C93.1181 111.318 93.4084 111.401 93.6988 111.485L93.8232 111.526C94.072 111.61 94.3208 111.651 94.5697 111.734C94.7356 111.776 94.9015 111.859 95.1088 111.901C95.3577 111.984 95.6065 112.026 95.8139 112.109C96.0212 112.15 96.1871 112.234 96.3945 112.275L96.7678 112.4C96.353 111.568 96.0627 110.444 96.6848 109.446L96.8922 109.113L97.1825 109.363C97.1825 109.363 98.6341 110.611 99.505 110.861C100.044 110.985 100.5 111.401 101.039 111.942C101.62 112.483 101.62 112.608 102.325 112.026L104.979 112.608L105.394 113.149L105.519 113.274L110.122 116.103L107.675 121.179V121.263L107.634 121.346C107.551 121.512 105.56 125.424 102.906 125.424C102.325 125.424 101.745 125.215 101.205 124.883C100.542 124.425 99.8782 124.175 99.2562 124.175C98.1779 124.175 97.141 124.841 95.9798 126.172C95.8968 126.256 95.8139 126.339 95.7309 126.422C95.5236 126.589 95.3162 126.755 95.1088 126.88C94.8185 127.046 94.4867 127.171 94.1964 127.213C93.8646 127.296 93.6573 127.337 93.4499 127.337Z" fill="#FAA284"/>
<path d="M101.91 112.234L102.491 110.445C103.694 106.575 110.039 90.7638 114.394 85.1051C114.643 84.7306 114.891 84.4393 115.223 84.1065L115.348 83.9816L115.555 83.7736L115.845 83.6072C115.887 83.5656 115.97 83.524 116.053 83.4823C116.716 83.0247 117.463 82.7334 118.292 82.6086C118.666 82.5254 119.08 82.4837 119.536 82.5254C120.2 82.567 120.864 82.6918 121.444 82.983C122.066 83.2327 122.398 83.4823 122.523 83.5656C122.771 83.732 123.02 83.94 123.186 84.1065L123.311 84.2313L123.476 84.4393C123.476 84.3977 123.435 84.3561 123.393 84.3145C123.476 84.3977 123.642 84.5642 123.808 84.8138C124.845 86.1869 125.26 87.8928 124.928 89.5572C124.804 90.5142 124.472 91.5544 123.974 92.553C123.476 93.5516 122.896 94.7582 122.108 96.2977C118.375 104.12 113.44 112.525 111.615 115.313L110.537 116.935L101.91 112.234Z" fill="#00A8DE"/>
<path d="M102.657 110.029C102.615 110.195 102.574 110.32 102.533 110.445L101.952 112.234L110.537 116.936L111.615 115.313C111.698 115.146 111.822 114.98 111.947 114.814L102.657 110.029Z" fill="#0083CA"/>
</svg>
