<?xml version="1.0" encoding="UTF-8"?>
<svg id="Layer_1" xmlns="http://www.w3.org/2000/svg" version="1.1" viewBox="0 0 1304 1141.33">
  <!-- Generator: Adobe Illustrator 29.6.0, SVG Export Plug-In . SVG Version: 2.1.1 Build 207)  -->
  <defs>
    <style>
      .st0 {
        fill: #bc1919;
      }

      .st1 {
        fill: #0ca4db;
      }

      .st2 {
        fill: #1fb697;
      }
    </style>
  </defs>
  <path class="st0" d="M532.73,527.52c-2.43-3.18-6.81-4.8-10.88-4.05-2.6.48-7.13,2.29-9.78,9-1.81-3.73-6.64-11.28-15.01-8.56-3.64,1.18-5.91,3.26-6.73,6.18-1.27,4.47,1.06,10.64,6.37,16.93,6.91,8.17,14.93,14.95,15.01,15.01.15.13.33.19.51.19.13,0,.26-.03.37-.09.57-.29,13.88-7.37,20.99-24.64,1.65-3.48,1.33-7.1-.85-9.96h0Z"/>
  <g>
    <path class="st1" d="M238.88,649.48c-10.23-5.06-18.08-12.23-23.54-21.54-5.47-9.3-8.2-20.11-8.2-32.44,0-17.09,3.23-32.26,9.68-45.51s15.2-23.51,26.24-30.78c11.04-7.26,23.31-10.9,36.79-10.9,12.56,0,22.09,3.23,28.6,9.68,6.51,6.45,9.77,14.97,9.77,25.55,0,7.09-1.25,12.79-3.75,17.09-2.5,4.3-6.08,6.45-10.72,6.45-3.26,0-5.81-.75-7.67-2.27-1.86-1.51-2.79-3.72-2.79-6.63,0-1.05.23-2.96.7-5.75.7-3.49,1.05-6.28,1.05-8.37,0-10.58-5.64-15.87-16.91-15.87-7.67,0-15,2.5-21.97,7.5-6.98,5-12.62,12.35-16.92,22.06-4.3,9.71-6.45,21.25-6.45,34.62s3.89,24.73,11.68,32.35c7.79,7.62,19.3,11.42,34.53,11.42,7.56,0,15.2-.96,22.93-2.88,7.73-1.92,16.3-4.85,25.72-8.81,1.74-.7,3.2-1.05,4.36-1.05,1.86,0,3.25.7,4.19,2.09.93,1.39,1.4,3.2,1.4,5.41,0,7.09-3.84,12.32-11.51,15.69-8.26,3.6-16.83,6.25-25.72,7.93s-17.35,2.53-25.37,2.53c-13.84,0-25.87-2.53-36.1-7.59Z"/>
    <path class="st1" d="M424.34,619.4c.87,1.4,1.31,3.31,1.31,5.76,0,4.65-1.11,8.26-3.31,10.81-5.35,6.16-10.84,11.22-16.48,15.17-5.64,3.95-12.06,5.93-19.27,5.93-5.93,0-10.41-1.71-13.43-5.14-3.02-3.43-4.53-8.4-4.53-14.91,0-3.25.81-9.07,2.44-17.44,1.51-7.32,2.27-12.38,2.27-15.17,0-1.86-.64-2.79-1.92-2.79-1.51,0-3.66,1.95-6.45,5.84-2.79,3.9-5.58,9.04-8.37,15.43-2.79,6.39-5.06,13.14-6.8,20.23-2.21,9.3-7.67,13.95-16.39,13.95-3.49,0-5.78-1.25-6.89-3.75-1.11-2.5-1.66-7-1.66-13.52,0-3.72.06-6.68.17-8.89l.17-13.95c0-17.9,1.83-36.56,5.49-55.98,3.66-19.41,9.07-35.72,16.22-48.91,7.15-13.19,15.72-19.79,25.72-19.79,5.35,0,9.68,2.3,12.99,6.89,3.31,4.59,4.97,10.55,4.97,17.87,0,11.74-3.43,23.92-10.29,36.53-6.86,12.62-18.02,27.35-33.48,44.21-.35,6.05-.52,12.27-.52,18.66,3.84-9.88,8.11-17.93,12.82-24.15,4.71-6.22,9.36-10.66,13.95-13.34,4.59-2.67,8.81-4.01,12.64-4.01,7.56,0,11.34,3.78,11.34,11.34,0,4.53-1.28,12.73-3.84,24.59-2.21,10.11-3.31,16.8-3.31,20.05,0,4.65,1.68,6.98,5.06,6.98,2.32,0,5.08-1.42,8.28-4.27,3.2-2.85,7.47-7.47,12.82-13.86,1.4-1.63,2.96-2.44,4.71-2.44,1.51,0,2.7.7,3.57,2.09ZM361.99,518.52c-2.56,5.99-5.03,14.07-7.41,24.24-2.38,10.17-4.33,21.25-5.84,33.22,7.21-8.48,13.17-17.73,17.87-27.73,4.71-10,7.06-19.07,7.06-27.2,0-3.72-.41-6.57-1.22-8.54-.81-1.98-1.98-2.96-3.49-2.96-2.09,0-4.42,2.99-6.98,8.98Z"/>
    <path class="st1" d="M503.94,604.93c.81,1.51,1.22,3.43,1.22,5.75,0,5.58-1.69,8.89-5.06,9.94-6.98,2.44-14.65,3.84-23.02,4.19-2.21,9.77-6.57,17.59-13.08,23.45-6.51,5.87-13.89,8.81-22.15,8.81-6.97,0-12.93-1.68-17.87-5.06-4.94-3.37-8.69-7.85-11.25-13.43-2.56-5.58-3.84-11.62-3.84-18.14,0-8.83,1.68-16.71,5.06-23.63,3.37-6.92,8.02-12.32,13.95-16.22,5.93-3.89,12.5-5.84,19.71-5.84,8.83,0,15.96,3.05,21.36,9.15,5.41,6.1,8.57,13.63,9.5,22.58,5.46-.35,11.97-1.51,19.53-3.49.93-.23,1.74-.35,2.44-.35,1.51,0,2.67.76,3.49,2.27ZM452.94,634.05c2.73-3.02,4.56-7.38,5.49-13.08-3.6-2.44-6.37-5.64-8.28-9.59-1.92-3.95-2.88-8.14-2.88-12.56,0-1.86.17-3.72.52-5.58h-.87c-4.65,0-8.52,2.24-11.6,6.71-3.08,4.48-4.62,10.78-4.62,18.92,0,6.39,1.25,11.28,3.75,14.65,2.5,3.37,5.43,5.06,8.81,5.06,3.72,0,6.95-1.51,9.68-4.53Z"/>
    <path class="st1" d="M495.13,649.05c-3.43-5.35-5.14-12.44-5.14-21.27,0-5.23.67-11.95,2.01-20.14,1.33-8.2,3.05-15.84,5.14-22.93,1.05-3.72,2.44-6.28,4.19-7.67,1.74-1.4,4.53-2.09,8.37-2.09,5.93,0,8.89,1.98,8.89,5.93,0,2.91-1.11,9.65-3.31,20.23-2.79,12.79-4.19,21.45-4.19,25.98,0,3.49.46,6.16,1.39,8.02.93,1.86,2.5,2.79,4.71,2.79,2.09,0,4.71-1.45,7.85-4.36,3.14-2.9,7.32-7.5,12.56-13.78,1.39-1.63,2.96-2.44,4.71-2.44,1.51,0,2.7.7,3.57,2.09.87,1.4,1.31,3.31,1.31,5.76,0,4.65-1.11,8.26-3.31,10.81-11.51,14.07-22.26,21.1-32.26,21.1-7.56,0-13.05-2.67-16.48-8.02Z"/>
    <path class="st1" d="M539.77,647.39c-6.34-6.45-9.5-14.97-9.5-25.55,0-9.42,1.86-17.67,5.58-24.76,3.72-7.09,8.54-12.56,14.47-16.39,5.93-3.84,12.15-5.75,18.66-5.75s11.36,1.89,14.91,5.67c3.54,3.78,5.32,8.63,5.32,14.56,0,4.88-1.08,9.01-3.23,12.38-2.15,3.37-4.97,5.06-8.46,5.06-2.21,0-3.98-.52-5.32-1.57-1.34-1.05-2.01-2.5-2.01-4.36,0-.81.11-1.74.35-2.79.23-1.05.41-1.8.52-2.27.58-1.74.87-3.37.87-4.88s-.38-2.67-1.13-3.49c-.76-.81-1.83-1.22-3.23-1.22-2.68,0-5.17,1.19-7.5,3.57-2.33,2.38-4.19,5.61-5.58,9.68-1.39,4.07-2.09,8.54-2.09,13.43,0,13.49,5.87,20.23,17.61,20.23,4.77,0,9.91-1.6,15.43-4.8,5.52-3.2,10.96-7.99,16.3-14.39,1.39-1.63,2.96-2.44,4.71-2.44,1.51,0,2.7.7,3.57,2.09.87,1.4,1.31,3.31,1.31,5.76,0,4.42-1.11,8.02-3.31,10.81-5.47,6.74-12.01,11.95-19.62,15.61-7.62,3.66-14.97,5.49-22.06,5.49-11.4,0-20.26-3.23-26.59-9.68Z"/>
    <path class="st1" d="M663.24,624.63c.87,1.39,1.31,3.31,1.31,5.75,0,4.19-.99,7.79-2.96,10.81-3.26,5-7.53,8.89-12.82,11.68-5.29,2.79-11.6,4.19-18.92,4.19-11.16,0-19.82-3.34-25.98-10.03-6.16-6.68-9.24-15.72-9.24-27.12,0-8.02,1.68-15.49,5.06-22.41,3.37-6.92,8.05-12.41,14.04-16.48,5.99-4.07,12.76-6.1,20.32-6.1,6.74,0,12.15,2,16.22,6.02,4.07,4.01,6.1,9.45,6.1,16.31,0,8.02-2.88,14.91-8.63,20.66-5.76,5.75-15.55,10.32-29.38,13.69,2.79,5.35,7.5,8.02,14.12,8.02,4.77,0,8.69-1.1,11.77-3.31,3.08-2.21,6.65-5.93,10.72-11.16,1.39-1.74,2.96-2.62,4.71-2.62,1.51,0,2.7.7,3.57,2.09ZM620.16,599.52c-2.96,5-4.45,11.05-4.45,18.14v.35c6.86-1.63,12.26-4.07,16.22-7.32,3.95-3.25,5.93-7.03,5.93-11.33,0-2.21-.61-3.98-1.83-5.32-1.22-1.33-2.88-2-4.97-2-4.3,0-7.93,2.5-10.9,7.5Z"/>
  </g>
  <g>
    <path class="st2" d="M695.25,650.88c-9.3-5.87-13.95-14.85-13.95-26.94,0-6.39,1.1-11.27,3.31-14.65,2.21-3.37,5.46-5.06,9.77-5.06,3.14,0,5.69.81,7.67,2.44,1.98,1.63,2.96,3.72,2.96,6.28,0,2.33-.17,4.36-.52,6.1,0,.47-.09,1.28-.26,2.44-.17,1.16-.26,2.38-.26,3.66,0,5.23,2.64,9.13,7.93,11.68,5.29,2.56,12.7,3.84,22.23,3.84s17.61-1.77,23.19-5.32c5.58-3.54,8.37-8.52,8.37-14.91,0-3.95-1.28-7.35-3.84-10.2-2.56-2.85-5.75-5.23-9.59-7.15-3.84-1.92-9.24-4.27-16.22-7.06-8.95-3.49-16.25-6.8-21.89-9.94-5.64-3.14-10.46-7.41-14.47-12.82s-6.02-12.12-6.02-20.14,2.24-15.81,6.71-22.32c4.47-6.51,10.93-11.57,19.36-15.17,8.43-3.6,18.34-5.41,29.73-5.41,8.48,0,16.27,1.25,23.37,3.75,7.09,2.5,12.76,6.31,17,11.42,4.24,5.12,6.37,11.39,6.37,18.83s-1.11,12.85-3.31,16.57c-2.21,3.72-5.47,5.58-9.77,5.58-3.02,0-5.55-.93-7.58-2.79-2.04-1.86-3.05-4.07-3.05-6.63,0-2.21.17-4.24.52-6.1.35-3.49.52-5.69.52-6.63,0-4.88-2.38-8.6-7.15-11.16-4.77-2.56-10.7-3.84-17.79-3.84-10,0-17.64,1.83-22.93,5.49-5.29,3.66-7.93,8.81-7.93,15.43,0,4.42,1.37,8.2,4.1,11.33,2.73,3.14,6.13,5.75,10.2,7.85,4.07,2.09,9.77,4.59,17.09,7.5,8.83,3.6,15.93,6.86,21.28,9.77,5.35,2.91,9.91,6.86,13.69,11.86,3.78,5,5.67,11.16,5.67,18.48,0,13.72-5.2,24.27-15.61,31.65-10.41,7.38-24.33,11.07-41.76,11.07-15.46,0-27.84-2.93-37.14-8.81Z"/>
    <path class="st2" d="M877.19,621.49c.87,1.4,1.31,3.31,1.31,5.75,0,4.65-1.11,8.26-3.31,10.81-5,6.16-10.46,11.22-16.39,15.17-5.93,3.95-12.73,5.93-20.4,5.93-23.72,0-35.57-16.68-35.57-50.05,0-5.11.17-10.29.52-15.52h-6.8c-3.49,0-5.84-.64-7.06-1.92-1.22-1.28-1.83-3.31-1.83-6.1,0-6.51,2.62-9.77,7.85-9.77h9.94c1.97-12.79,5-24.47,9.07-35.05,4.07-10.58,8.98-19.01,14.74-25.29s11.95-9.42,18.57-9.42c4.88,0,8.72,2.15,11.51,6.45,2.79,4.3,4.19,9.71,4.19,16.22,0,18.02-7.56,33.72-22.67,47.08h19.53c1.86,0,3.2.41,4.01,1.22.81.81,1.22,2.33,1.22,4.53,0,8.02-6.57,12.03-19.71,12.03h-21.27c-.23,5.81-.35,10.35-.35,13.6,0,12.09,1.42,20.58,4.27,25.46,2.85,4.88,7.35,7.32,13.51,7.32,5,0,9.42-1.51,13.25-4.53,3.84-3.02,8.37-7.56,13.6-13.6,1.4-1.63,2.96-2.44,4.71-2.44,1.51,0,2.7.7,3.57,2.09ZM837.26,529.33c-2.15,4.36-4.18,10.41-6.1,18.14-1.92,7.73-3.52,16.3-4.79,25.72,6.86-5.93,12-12.58,15.43-19.97,3.43-7.38,5.14-14.1,5.14-20.14,0-6.86-1.28-10.29-3.84-10.29-1.74,0-3.69,2.18-5.84,6.54Z"/>
    <path class="st2" d="M956.8,607.02c.81,1.51,1.22,3.43,1.22,5.75,0,5.58-1.69,8.89-5.06,9.94-6.98,2.44-14.65,3.84-23.02,4.19-2.21,9.77-6.57,17.59-13.08,23.45-6.51,5.87-13.89,8.81-22.15,8.81-6.98,0-12.93-1.68-17.87-5.06-4.94-3.37-8.69-7.85-11.25-13.43-2.56-5.58-3.84-11.62-3.84-18.14,0-8.83,1.68-16.71,5.06-23.63,3.37-6.92,8.02-12.32,13.95-16.22,5.93-3.89,12.5-5.84,19.71-5.84,8.83,0,15.96,3.05,21.36,9.16,5.41,6.1,8.57,13.63,9.5,22.58,5.46-.35,11.97-1.51,19.53-3.49.93-.23,1.74-.35,2.44-.35,1.51,0,2.67.76,3.49,2.27ZM905.79,636.14c2.73-3.02,4.56-7.38,5.49-13.08-3.6-2.44-6.37-5.64-8.28-9.59-1.92-3.95-2.88-8.14-2.88-12.56,0-1.86.17-3.72.52-5.58h-.87c-4.65,0-8.52,2.24-11.6,6.71-3.08,4.48-4.62,10.78-4.62,18.92,0,6.4,1.25,11.28,3.75,14.65,2.5,3.37,5.43,5.06,8.81,5.06,3.72,0,6.95-1.51,9.68-4.53Z"/>
    <path class="st2" d="M946.07,652.18c-1.8-4.65-2.7-12.09-2.7-22.32,0-15.11,2.15-29.47,6.45-43.07,1.05-3.37,2.76-5.84,5.14-7.41,2.38-1.57,5.72-2.35,10.03-2.35,2.32,0,3.95.29,4.88.87.93.58,1.39,1.69,1.39,3.31,0,1.86-.87,6.05-2.62,12.56-1.16,4.65-2.09,8.72-2.79,12.21-.7,3.49-1.28,7.79-1.74,12.9,3.84-10,8.14-18.14,12.9-24.41,4.77-6.28,9.44-10.75,14.04-13.43,4.59-2.67,8.81-4.01,12.64-4.01,7.56,0,11.33,3.78,11.33,11.33,0,1.51-.52,5.17-1.57,10.99-.93,4.65-1.4,7.56-1.4,8.72,0,4.07,1.45,6.1,4.36,6.1,3.25,0,7.44-2.56,12.55-7.67,1.51-1.51,3.08-2.27,4.71-2.27,1.51,0,2.7.67,3.57,2.01.87,1.34,1.31,3.11,1.31,5.32,0,4.3-1.16,7.67-3.49,10.11-3.26,3.37-7.06,6.25-11.42,8.63-4.36,2.38-8.98,3.57-13.86,3.57-6.16,0-10.84-1.57-14.04-4.71-3.2-3.14-4.79-7.38-4.79-12.73,0-1.74.17-3.49.52-5.23.23-2.32.35-3.89.35-4.71,0-1.86-.64-2.79-1.92-2.79-1.74,0-4.04,1.95-6.89,5.84-2.85,3.9-5.67,9.04-8.46,15.43-2.79,6.4-5.06,13.14-6.8,20.23-1.28,5.47-2.76,9.16-4.45,11.07-1.69,1.92-4.33,2.88-7.93,2.88-4.42,0-7.53-2.32-9.33-6.98Z"/>
    <path class="st2" d="M1088.97,578.07c1.05.7,1.57,1.86,1.57,3.49,0,2.79-1.51,12.73-4.53,29.82-2.68,16.39-4.25,26.1-4.71,29.12-4.3,29.88-10.23,53.54-17.79,70.97-7.56,17.44-17.61,26.16-30.17,26.16-5.93,0-10.75-1.83-14.47-5.49-3.72-3.66-5.58-8.46-5.58-14.39,0-5.47,1.25-11.05,3.75-16.74,2.5-5.7,7.15-12.24,13.95-19.62,6.8-7.38,16.42-15.84,28.86-25.37l.52-4.01c.81-4.3,1.74-10.46,2.79-18.48-2.33,8.37-5.58,14.74-9.77,19.09-4.18,4.36-8.6,6.54-13.25,6.54-5.23,0-9.5-2.41-12.82-7.24-3.31-4.82-4.97-10.84-4.97-18.05,0-8.72.58-16.71,1.74-23.98,1.16-7.26,3.08-14.97,5.75-23.11,1.16-3.49,2.79-5.99,4.88-7.5,2.09-1.51,5.41-2.27,9.94-2.27,2.56,0,4.33.41,5.32,1.22.99.81,1.48,2.04,1.48,3.66,0,.93-.64,4.07-1.92,9.42-1.16,4.3-2.09,8.2-2.79,11.68-.93,4.77-1.74,9.33-2.44,13.69-.7,4.36-1.05,7.93-1.05,10.72,0,4.42,1.22,6.63,3.66,6.63,1.74,0,3.92-1.74,6.54-5.23,2.62-3.49,5.41-8.78,8.37-15.87,2.96-7.09,5.84-15.81,8.63-26.16.93-3.49,2.35-5.99,4.27-7.5,1.92-1.51,4.8-2.27,8.63-2.27,2.67,0,4.53.35,5.58,1.05ZM1045.03,710.6c3.6-6.74,7.21-17.96,10.81-33.66-8.95,7.56-15.43,14.44-19.44,20.66-4.01,6.22-6.02,11.65-6.02,16.3,0,1.98.38,3.6,1.13,4.88.75,1.28,2.01,1.92,3.75,1.92,2.91,0,6.16-3.37,9.77-10.11Z"/>
  </g>
</svg>